G04 EAGLE Gerber RS-274X export*
G75*
%MOMM*%
%FSLAX34Y34*%
%LPD*%
%INBottom Copper*%
%IPPOS*%
%AMOC8*
5,1,8,0,0,1.08239X$1,22.5*%
G01*
%ADD10P,1.231672X8X22.500000*%
%ADD11C,1.400000*%
%ADD12C,1.960000*%
%ADD13R,1.524000X1.524000*%
%ADD14P,1.649562X8X22.500000*%
%ADD15R,1.288000X1.288000*%
%ADD16C,1.288000*%
%ADD17C,3.220000*%
%ADD18C,4.445000*%
%ADD19R,0.275000X1.200000*%
%ADD20C,0.600000*%
%ADD21C,0.254000*%
%ADD22C,0.654800*%
%ADD23C,0.914400*%
%ADD24C,0.381000*%


D10*
X330200Y914400D03*
X355600Y914400D03*
D11*
X1092600Y88900D03*
X1117600Y88900D03*
X1142600Y88900D03*
D12*
X608600Y825100D03*
X608600Y775100D03*
X483600Y775100D03*
X483600Y825100D03*
D13*
X122600Y390900D03*
D14*
X122600Y416300D03*
X148000Y390900D03*
X148000Y416300D03*
X173400Y390900D03*
X173400Y416300D03*
X198800Y390900D03*
X198800Y416300D03*
X224200Y390900D03*
X224200Y416300D03*
X249600Y390900D03*
X249600Y416300D03*
X275000Y390900D03*
X275000Y416300D03*
X300400Y390900D03*
X300400Y416300D03*
X325800Y390900D03*
X325800Y416300D03*
X351200Y390900D03*
X351200Y416300D03*
X376600Y390900D03*
X376600Y416300D03*
X402000Y390900D03*
X402000Y416300D03*
X427400Y390900D03*
X427400Y416300D03*
X452800Y390900D03*
X452800Y416300D03*
X478200Y390900D03*
X478200Y416300D03*
X503600Y390900D03*
X503600Y416300D03*
X529000Y390900D03*
X529000Y416300D03*
X554400Y390900D03*
X554400Y416300D03*
D13*
X122600Y644900D03*
D14*
X122600Y670300D03*
X148000Y644900D03*
X148000Y670300D03*
X173400Y644900D03*
X173400Y670300D03*
X198800Y644900D03*
X198800Y670300D03*
X224200Y644900D03*
X224200Y670300D03*
X249600Y644900D03*
X249600Y670300D03*
X275000Y644900D03*
X275000Y670300D03*
X300400Y644900D03*
X300400Y670300D03*
X325800Y644900D03*
X325800Y670300D03*
X351200Y644900D03*
X351200Y670300D03*
X376600Y644900D03*
X376600Y670300D03*
X402000Y644900D03*
X402000Y670300D03*
X427400Y644900D03*
X427400Y670300D03*
X452800Y644900D03*
X452800Y670300D03*
X478200Y644900D03*
X478200Y670300D03*
X503600Y644900D03*
X503600Y670300D03*
X529000Y644900D03*
X529000Y670300D03*
X554400Y644900D03*
X554400Y670300D03*
D10*
X381000Y914400D03*
X406400Y914400D03*
X431800Y914400D03*
X457200Y914400D03*
D11*
X533800Y76200D03*
X558800Y76200D03*
X583800Y76200D03*
D12*
X851900Y140100D03*
X851900Y190100D03*
X976900Y190100D03*
X976900Y140100D03*
D15*
X203200Y203200D03*
D16*
X228200Y203200D03*
X248200Y203200D03*
X273200Y203200D03*
D17*
X172500Y176100D03*
X303900Y176100D03*
D18*
X38100Y965200D03*
X38100Y38100D03*
X1200150Y44450D03*
X1193800Y952500D03*
D19*
X753800Y510300D03*
X758800Y510300D03*
X763800Y510300D03*
X768800Y510300D03*
X773800Y510300D03*
X778800Y510300D03*
X783800Y510300D03*
X788800Y510300D03*
X793800Y510300D03*
X798800Y510300D03*
X803800Y510300D03*
X808800Y510300D03*
X813800Y510300D03*
X818800Y510300D03*
X823800Y510300D03*
X828800Y510300D03*
X833800Y510300D03*
X838800Y510300D03*
X843800Y510300D03*
X848800Y510300D03*
X853800Y510300D03*
X858800Y510300D03*
X863800Y510300D03*
X868800Y510300D03*
X873800Y510300D03*
X878800Y510300D03*
X883800Y510300D03*
X888800Y510300D03*
X893800Y510300D03*
X898800Y510300D03*
X903800Y510300D03*
X908800Y510300D03*
X913800Y510300D03*
X918800Y510300D03*
X923800Y510300D03*
X928800Y510300D03*
X933800Y510300D03*
X938800Y510300D03*
X943800Y510300D03*
X948800Y510300D03*
X953800Y510300D03*
X958800Y510300D03*
X963800Y510300D03*
X968800Y510300D03*
X973800Y510300D03*
X978800Y510300D03*
X983800Y510300D03*
X988800Y510300D03*
X993800Y510300D03*
X998800Y510300D03*
D20*
X1010800Y487700D02*
X1028800Y487700D01*
X1028800Y469700D01*
X1010800Y469700D01*
X1010800Y487700D01*
X1010800Y475400D02*
X1028800Y475400D01*
X1028800Y481100D02*
X1010800Y481100D01*
X1010800Y486800D02*
X1028800Y486800D01*
X741800Y487700D02*
X723800Y487700D01*
X741800Y487700D02*
X741800Y469700D01*
X723800Y469700D01*
X723800Y487700D01*
X723800Y475400D02*
X741800Y475400D01*
X741800Y481100D02*
X723800Y481100D01*
X723800Y486800D02*
X741800Y486800D01*
D21*
X988800Y510300D02*
X988800Y518900D01*
X990600Y520700D01*
X965200Y520700D01*
X993800Y517500D02*
X993800Y510300D01*
X993800Y517500D02*
X990600Y520700D01*
X963800Y519300D02*
X963800Y510300D01*
X963800Y519300D02*
X963880Y519380D01*
D22*
X304800Y355600D03*
D21*
X993800Y510300D02*
X998800Y510300D01*
X965200Y520700D02*
X963880Y519380D01*
X963880Y519300D01*
X993800Y517500D02*
X993800Y523240D01*
D22*
X63500Y284480D03*
X63500Y274320D03*
X63500Y264160D03*
X114300Y284480D03*
X114300Y274320D03*
X114300Y264160D03*
D21*
X993800Y523240D02*
X993800Y523900D01*
D23*
X304800Y774700D03*
X416560Y939800D03*
X467360Y939800D03*
X355600Y944880D03*
X584200Y60960D03*
X271780Y228600D03*
X1079500Y55880D03*
X1137920Y774700D03*
X1107440Y774700D03*
X817880Y139700D03*
X1117600Y947420D03*
D24*
X973480Y543560D02*
X993800Y523240D01*
X973480Y543560D02*
X971804Y543560D01*
X970280Y543560D01*
D23*
X971804Y543560D03*
X972820Y533400D03*
X1003300Y139700D03*
D21*
X948800Y510300D02*
X948800Y529700D01*
X958800Y527100D02*
X958800Y510300D01*
D23*
X414700Y626700D03*
X914400Y717550D03*
X1033780Y168910D03*
D24*
X956200Y529700D02*
X948800Y529700D01*
X956200Y529700D02*
X958800Y527100D01*
X948800Y529700D02*
X948800Y537320D01*
X949960Y538480D01*
D23*
X949960Y538480D03*
X960120Y543560D03*
D22*
X66040Y243840D03*
X66040Y233680D03*
X66040Y223520D03*
X114300Y223520D03*
X114300Y233680D03*
X114300Y243840D03*
D21*
X228200Y203200D02*
X228200Y386900D01*
X224200Y390900D01*
X241300Y210100D02*
X248200Y203200D01*
X241300Y251460D02*
X243840Y254000D01*
X251460Y254000D02*
X254000Y256540D01*
X254000Y261620D01*
X251460Y264160D01*
X243840Y264160D01*
X241300Y266700D01*
X241300Y271780D01*
X251460Y271780D01*
X254000Y274320D01*
X254000Y279400D01*
X251460Y281940D01*
X241300Y281940D01*
X241300Y382600D01*
X249600Y390900D01*
X241300Y251460D02*
X241300Y210100D01*
X243840Y254000D02*
X251460Y254000D01*
X938800Y510300D02*
X939800Y509300D01*
X939800Y419100D01*
X925570Y404870D01*
X234950Y404870D01*
X232166Y404870D01*
X184830Y404870D01*
X173400Y416300D01*
X580465Y419100D02*
X920750Y419100D01*
X580465Y419100D02*
X571835Y427730D01*
X918800Y510300D02*
X920750Y508350D01*
X920750Y419100D01*
X261030Y427730D02*
X249600Y416300D01*
X261030Y427730D02*
X571835Y427730D01*
X933450Y510650D02*
X933800Y510300D01*
X933450Y510650D02*
X933450Y539750D01*
X120650Y539750D01*
X113402Y379470D02*
X131798Y379470D01*
X134030Y381702D01*
X134030Y402330D01*
X148000Y416300D01*
X106090Y386782D02*
X106090Y525190D01*
X106090Y386782D02*
X113402Y379470D01*
X106090Y525190D02*
X120650Y539750D01*
X135650Y510300D02*
X742950Y510300D01*
X135650Y510300D02*
X133350Y508000D01*
X133350Y427050D01*
X742950Y495300D02*
X800100Y495300D01*
X800100Y509000D02*
X798800Y510300D01*
X800100Y509000D02*
X800100Y495300D01*
X742950Y495300D02*
X742950Y510300D01*
X133350Y427050D02*
X122600Y416300D01*
X927100Y512000D02*
X928800Y510300D01*
X927100Y512000D02*
X927100Y533400D01*
X133350Y533400D01*
X127000Y527050D01*
X123870Y523920D01*
X111170Y421035D02*
X111170Y411566D01*
X117866Y404870D01*
X127335Y404870D01*
X134030Y411566D01*
X187370Y427730D02*
X198800Y416300D01*
X134030Y418495D02*
X134030Y411566D01*
X134030Y418495D02*
X143266Y427730D01*
X187370Y427730D01*
X127000Y436865D02*
X127000Y527050D01*
X127000Y436865D02*
X111170Y421035D01*
X769360Y432810D02*
X828675Y492125D01*
X913800Y510300D02*
X914400Y509700D01*
X914400Y495300D01*
X911225Y492125D01*
X828675Y492125D01*
X769360Y432810D02*
X621290Y432810D01*
X590550Y463550D01*
X271450Y463550D01*
X224200Y416300D01*
M02*
