G04 EAGLE Gerber RS-274X export*
G75*
%MOMM*%
%FSLAX34Y34*%
%LPD*%
%INTop Copper*%
%IPPOS*%
%AMOC8*
5,1,8,0,0,1.08239X$1,22.5*%
G01*
%ADD10P,1.231672X8X22.500000*%
%ADD11C,1.400000*%
%ADD12C,1.960000*%
%ADD13R,0.900000X0.900000*%
%ADD14R,1.524000X1.524000*%
%ADD15P,1.649562X8X22.500000*%
%ADD16R,1.288000X1.288000*%
%ADD17C,1.288000*%
%ADD18C,3.220000*%
%ADD19C,4.445000*%
%ADD20C,1.016000*%
%ADD21R,1.600000X2.500000*%
%ADD22C,0.254000*%
%ADD23C,0.654800*%
%ADD24C,0.914400*%
%ADD25C,0.381000*%

G36*
X1253408Y2559D02*
X1253408Y2559D01*
X1253527Y2567D01*
X1253565Y2579D01*
X1253604Y2584D01*
X1253716Y2628D01*
X1253829Y2665D01*
X1253863Y2686D01*
X1253900Y2701D01*
X1253997Y2771D01*
X1254098Y2835D01*
X1254125Y2864D01*
X1254158Y2887D01*
X1254234Y2979D01*
X1254316Y3067D01*
X1254335Y3102D01*
X1254361Y3132D01*
X1254412Y3240D01*
X1254470Y3345D01*
X1254480Y3384D01*
X1254497Y3420D01*
X1254519Y3538D01*
X1254549Y3653D01*
X1254553Y3712D01*
X1254557Y3732D01*
X1254555Y3753D01*
X1254559Y3814D01*
X1254559Y467560D01*
X1254547Y467658D01*
X1254544Y467757D01*
X1254527Y467815D01*
X1254519Y467876D01*
X1254483Y467968D01*
X1254455Y468063D01*
X1254425Y468115D01*
X1254402Y468171D01*
X1254344Y468251D01*
X1254294Y468337D01*
X1254228Y468412D01*
X1254216Y468429D01*
X1254206Y468436D01*
X1254188Y468457D01*
X1254134Y468511D01*
X1254135Y468513D01*
X1254242Y468670D01*
X1254256Y468702D01*
X1254274Y468731D01*
X1254347Y468908D01*
X1254424Y469082D01*
X1254432Y469116D01*
X1254445Y469148D01*
X1254485Y469335D01*
X1254531Y469520D01*
X1254533Y469554D01*
X1254540Y469588D01*
X1254559Y469900D01*
X1254559Y994920D01*
X1254556Y994955D01*
X1254558Y994989D01*
X1254536Y995178D01*
X1254519Y995369D01*
X1254510Y995402D01*
X1254506Y995436D01*
X1254451Y995619D01*
X1254401Y995803D01*
X1254386Y995834D01*
X1254376Y995867D01*
X1254289Y996038D01*
X1254207Y996210D01*
X1254187Y996238D01*
X1254172Y996269D01*
X1254056Y996421D01*
X1253945Y996576D01*
X1253920Y996600D01*
X1253900Y996627D01*
X1253760Y996756D01*
X1253623Y996890D01*
X1253594Y996909D01*
X1253568Y996933D01*
X1253407Y997035D01*
X1253250Y997142D01*
X1253218Y997156D01*
X1253189Y997174D01*
X1253012Y997247D01*
X1252838Y997324D01*
X1252804Y997332D01*
X1252772Y997345D01*
X1252585Y997385D01*
X1252400Y997431D01*
X1252366Y997433D01*
X1252332Y997440D01*
X1252020Y997459D01*
X5085Y997459D01*
X5049Y997456D01*
X5013Y997458D01*
X4825Y997436D01*
X4637Y997419D01*
X4602Y997410D01*
X4566Y997406D01*
X4385Y997351D01*
X4202Y997301D01*
X4170Y997285D01*
X4135Y997275D01*
X3966Y997189D01*
X3796Y997107D01*
X3766Y997087D01*
X3734Y997070D01*
X3584Y996956D01*
X3430Y996845D01*
X3404Y996820D01*
X3376Y996798D01*
X3248Y996658D01*
X3116Y996523D01*
X3095Y996493D01*
X3071Y996466D01*
X2969Y996307D01*
X2863Y996150D01*
X2849Y996117D01*
X2830Y996086D01*
X2758Y995911D01*
X2681Y995738D01*
X2673Y995703D01*
X2659Y995670D01*
X2619Y995485D01*
X2575Y995300D01*
X2572Y995265D01*
X2565Y995229D01*
X2546Y994917D01*
X3119Y431797D01*
X3553Y5075D01*
X3568Y4958D01*
X3575Y4840D01*
X3588Y4801D01*
X3593Y4759D01*
X3636Y4650D01*
X3673Y4538D01*
X3695Y4502D01*
X3710Y4464D01*
X3780Y4369D01*
X3843Y4269D01*
X3873Y4240D01*
X3897Y4207D01*
X3988Y4132D01*
X4074Y4051D01*
X4110Y4031D01*
X4143Y4004D01*
X4249Y3954D01*
X4352Y3897D01*
X4393Y3887D01*
X4430Y3869D01*
X4546Y3847D01*
X4660Y3817D01*
X4722Y3813D01*
X4743Y3809D01*
X4763Y3811D01*
X4821Y3807D01*
X1253289Y2545D01*
X1253408Y2559D01*
G37*
%LPC*%
G36*
X95776Y33019D02*
X95776Y33019D01*
X52069Y76726D01*
X52069Y429603D01*
X52090Y429613D01*
X52118Y429633D01*
X52149Y429648D01*
X52301Y429764D01*
X52456Y429875D01*
X52480Y429900D01*
X52507Y429920D01*
X52636Y430061D01*
X52770Y430197D01*
X52789Y430226D01*
X52813Y430252D01*
X52915Y430413D01*
X53022Y430570D01*
X53036Y430602D01*
X53054Y430631D01*
X53127Y430808D01*
X53204Y430982D01*
X53212Y431016D01*
X53225Y431048D01*
X53265Y431235D01*
X53311Y431420D01*
X53313Y431454D01*
X53320Y431488D01*
X53339Y431800D01*
X53339Y913348D01*
X102652Y962661D01*
X1070816Y962661D01*
X1070980Y962675D01*
X1071144Y962682D01*
X1071203Y962695D01*
X1071264Y962701D01*
X1071423Y962744D01*
X1071584Y962780D01*
X1071640Y962803D01*
X1071699Y962819D01*
X1071847Y962890D01*
X1071999Y962953D01*
X1072050Y962986D01*
X1072105Y963013D01*
X1072239Y963108D01*
X1072377Y963198D01*
X1072435Y963249D01*
X1072471Y963275D01*
X1072514Y963318D01*
X1072519Y963323D01*
X1072538Y963337D01*
X1072553Y963353D01*
X1072611Y963404D01*
X1072643Y963436D01*
X1072732Y963542D01*
X1072785Y963597D01*
X1072793Y963609D01*
X1072846Y963665D01*
X1072886Y963726D01*
X1072932Y963782D01*
X1073008Y963915D01*
X1073091Y964043D01*
X1073120Y964110D01*
X1073156Y964173D01*
X1073207Y964317D01*
X1073266Y964458D01*
X1073282Y964529D01*
X1073306Y964597D01*
X1073331Y964748D01*
X1073365Y964897D01*
X1073368Y964970D01*
X1073380Y965041D01*
X1073378Y965194D01*
X1073384Y965347D01*
X1073375Y965419D01*
X1073374Y965491D01*
X1073345Y965642D01*
X1073324Y965793D01*
X1073302Y965862D01*
X1073288Y965934D01*
X1073233Y966076D01*
X1073186Y966222D01*
X1073144Y966305D01*
X1073126Y966354D01*
X1073096Y966402D01*
X1073047Y966502D01*
X1072632Y967219D01*
X1072459Y967865D01*
X1072459Y970161D01*
X1079500Y970161D01*
X1086541Y970161D01*
X1086541Y967865D01*
X1086368Y967219D01*
X1085953Y966502D01*
X1085889Y966363D01*
X1085817Y966228D01*
X1085794Y966159D01*
X1085764Y966093D01*
X1085725Y965945D01*
X1085677Y965800D01*
X1085667Y965728D01*
X1085649Y965658D01*
X1085637Y965505D01*
X1085616Y965354D01*
X1085619Y965281D01*
X1085613Y965209D01*
X1085628Y965057D01*
X1085634Y964904D01*
X1085650Y964833D01*
X1085657Y964761D01*
X1085699Y964614D01*
X1085732Y964464D01*
X1085760Y964397D01*
X1085780Y964327D01*
X1085846Y964190D01*
X1085905Y964049D01*
X1085945Y963988D01*
X1085977Y963923D01*
X1086067Y963799D01*
X1086150Y963671D01*
X1086212Y963600D01*
X1086242Y963559D01*
X1086283Y963520D01*
X1086290Y963512D01*
X1086305Y963493D01*
X1086317Y963481D01*
X1086357Y963436D01*
X1086389Y963404D01*
X1086509Y963304D01*
X1086568Y963248D01*
X1086577Y963242D01*
X1086636Y963188D01*
X1086687Y963155D01*
X1086734Y963116D01*
X1086877Y963034D01*
X1087016Y962946D01*
X1087072Y962922D01*
X1087125Y962892D01*
X1087280Y962837D01*
X1087432Y962775D01*
X1087492Y962762D01*
X1087549Y962741D01*
X1087712Y962715D01*
X1087872Y962680D01*
X1087949Y962675D01*
X1087993Y962668D01*
X1088055Y962669D01*
X1088184Y962661D01*
X1129248Y962661D01*
X1203961Y887948D01*
X1203961Y469900D01*
X1203964Y469866D01*
X1203962Y469831D01*
X1203984Y469642D01*
X1204001Y469452D01*
X1204010Y469418D01*
X1204014Y469384D01*
X1204069Y469201D01*
X1204119Y469017D01*
X1204134Y468986D01*
X1204144Y468953D01*
X1204231Y468782D01*
X1204313Y468611D01*
X1204333Y468582D01*
X1204348Y468551D01*
X1204464Y468399D01*
X1204575Y468244D01*
X1204600Y468220D01*
X1204620Y468193D01*
X1204761Y468064D01*
X1204897Y467930D01*
X1204926Y467911D01*
X1204952Y467888D01*
X1205113Y467785D01*
X1205231Y467705D01*
X1205231Y95776D01*
X1142474Y33019D01*
X336549Y33019D01*
X336549Y180340D01*
X336534Y180458D01*
X336527Y180577D01*
X336514Y180615D01*
X336509Y180656D01*
X336466Y180766D01*
X336429Y180879D01*
X336407Y180914D01*
X336392Y180951D01*
X336323Y181047D01*
X336259Y181148D01*
X336229Y181176D01*
X336206Y181209D01*
X336114Y181285D01*
X336027Y181366D01*
X335992Y181386D01*
X335961Y181411D01*
X335853Y181462D01*
X335749Y181520D01*
X335709Y181530D01*
X335673Y181547D01*
X335556Y181569D01*
X335441Y181599D01*
X335381Y181603D01*
X335361Y181607D01*
X335340Y181605D01*
X335280Y181609D01*
X325120Y181609D01*
X325002Y181594D01*
X324883Y181587D01*
X324845Y181574D01*
X324804Y181569D01*
X324694Y181526D01*
X324581Y181489D01*
X324546Y181467D01*
X324509Y181452D01*
X324413Y181383D01*
X324312Y181319D01*
X324284Y181289D01*
X324251Y181266D01*
X324176Y181174D01*
X324094Y181087D01*
X324074Y181052D01*
X324049Y181021D01*
X323998Y180913D01*
X323940Y180809D01*
X323930Y180769D01*
X323913Y180733D01*
X323891Y180616D01*
X323861Y180501D01*
X323857Y180441D01*
X323853Y180421D01*
X323855Y180400D01*
X323851Y180340D01*
X323851Y158004D01*
X323478Y158378D01*
X323399Y158438D01*
X323327Y158506D01*
X323274Y158535D01*
X323226Y158572D01*
X323135Y158612D01*
X323049Y158660D01*
X322990Y158675D01*
X322934Y158699D01*
X322836Y158714D01*
X322741Y158739D01*
X322641Y158745D01*
X322620Y158749D01*
X322608Y158747D01*
X322580Y158749D01*
X310975Y158749D01*
X310965Y158748D01*
X310956Y158749D01*
X310807Y158728D01*
X310659Y158709D01*
X310651Y158706D01*
X310641Y158705D01*
X310489Y158653D01*
X309905Y158411D01*
X307545Y157778D01*
X306422Y157630D01*
X306417Y157717D01*
X306404Y157755D01*
X306399Y157796D01*
X306356Y157906D01*
X306319Y158019D01*
X306297Y158054D01*
X306282Y158091D01*
X306212Y158187D01*
X306149Y158288D01*
X306119Y158316D01*
X306095Y158349D01*
X306004Y158425D01*
X305917Y158506D01*
X305882Y158526D01*
X305851Y158551D01*
X305743Y158602D01*
X305639Y158660D01*
X305599Y158670D01*
X305563Y158687D01*
X305446Y158709D01*
X305331Y158739D01*
X305270Y158743D01*
X305250Y158747D01*
X305230Y158745D01*
X305170Y158749D01*
X302630Y158749D01*
X302512Y158734D01*
X302393Y158727D01*
X302355Y158714D01*
X302314Y158709D01*
X302204Y158666D01*
X302091Y158629D01*
X302056Y158607D01*
X302019Y158592D01*
X301923Y158523D01*
X301822Y158459D01*
X301794Y158429D01*
X301761Y158406D01*
X301686Y158314D01*
X301604Y158227D01*
X301584Y158192D01*
X301559Y158161D01*
X301508Y158053D01*
X301450Y157949D01*
X301440Y157909D01*
X301423Y157873D01*
X301401Y157756D01*
X301371Y157641D01*
X301370Y157631D01*
X300255Y157778D01*
X297895Y158411D01*
X297311Y158653D01*
X297302Y158655D01*
X297294Y158660D01*
X297150Y158697D01*
X297004Y158737D01*
X296995Y158737D01*
X296986Y158739D01*
X296825Y158749D01*
X271780Y158749D01*
X271682Y158737D01*
X271583Y158734D01*
X271525Y158717D01*
X271464Y158709D01*
X271372Y158673D01*
X271277Y158645D01*
X271225Y158615D01*
X271169Y158592D01*
X271089Y158534D01*
X271003Y158484D01*
X270928Y158418D01*
X270911Y158406D01*
X270904Y158396D01*
X270883Y158378D01*
X268343Y155838D01*
X268282Y155759D01*
X268214Y155687D01*
X268185Y155634D01*
X268148Y155586D01*
X268108Y155495D01*
X268060Y155409D01*
X268045Y155350D01*
X268021Y155294D01*
X268006Y155196D01*
X267981Y155101D01*
X267975Y155001D01*
X267971Y154980D01*
X267973Y154968D01*
X267971Y154940D01*
X267971Y33019D01*
X191769Y33019D01*
X191769Y154940D01*
X191754Y155058D01*
X191747Y155177D01*
X191734Y155215D01*
X191729Y155256D01*
X191686Y155366D01*
X191649Y155479D01*
X191627Y155514D01*
X191612Y155551D01*
X191543Y155647D01*
X191479Y155748D01*
X191449Y155776D01*
X191426Y155809D01*
X191334Y155885D01*
X191247Y155966D01*
X191212Y155986D01*
X191181Y156011D01*
X191073Y156062D01*
X190969Y156120D01*
X190929Y156130D01*
X190893Y156147D01*
X190776Y156169D01*
X190661Y156199D01*
X190601Y156203D01*
X190581Y156207D01*
X190560Y156205D01*
X190500Y156209D01*
X153669Y156209D01*
X153669Y177800D01*
X153654Y177918D01*
X153647Y178037D01*
X153634Y178075D01*
X153629Y178116D01*
X153586Y178226D01*
X153549Y178339D01*
X153527Y178374D01*
X153512Y178411D01*
X153443Y178507D01*
X153379Y178608D01*
X153349Y178636D01*
X153326Y178669D01*
X153234Y178745D01*
X153147Y178826D01*
X153112Y178846D01*
X153081Y178871D01*
X152973Y178922D01*
X152869Y178980D01*
X152829Y178990D01*
X152793Y179007D01*
X152676Y179029D01*
X152561Y179059D01*
X152501Y179063D01*
X152481Y179067D01*
X152460Y179065D01*
X152400Y179069D01*
X144780Y179069D01*
X144682Y179057D01*
X144583Y179054D01*
X144525Y179037D01*
X144464Y179029D01*
X144372Y178993D01*
X144277Y178965D01*
X144225Y178935D01*
X144169Y178912D01*
X144089Y178854D01*
X144003Y178804D01*
X143928Y178738D01*
X143911Y178726D01*
X143904Y178716D01*
X143883Y178698D01*
X122547Y157362D01*
X122486Y157283D01*
X122418Y157211D01*
X122389Y157158D01*
X122352Y157110D01*
X122312Y157019D01*
X122264Y156933D01*
X122249Y156874D01*
X122225Y156818D01*
X122210Y156720D01*
X122185Y156625D01*
X122179Y156525D01*
X122175Y156504D01*
X122177Y156492D01*
X122175Y156464D01*
X122175Y33019D01*
X95776Y33019D01*
G37*
%LPD*%
%LPC*%
G36*
X40639Y40639D02*
X40639Y40639D01*
X40639Y62736D01*
X42255Y62554D01*
X44967Y61935D01*
X47592Y61017D01*
X50099Y59810D01*
X52454Y58330D01*
X54629Y56595D01*
X56595Y54629D01*
X58330Y52454D01*
X59810Y50099D01*
X61017Y47592D01*
X61935Y44967D01*
X62554Y42255D01*
X62736Y40639D01*
X40639Y40639D01*
G37*
%LPD*%
%LPC*%
G36*
X1202689Y46989D02*
X1202689Y46989D01*
X1202689Y69086D01*
X1204305Y68904D01*
X1207017Y68285D01*
X1209642Y67367D01*
X1212149Y66160D01*
X1214504Y64680D01*
X1216679Y62945D01*
X1218645Y60979D01*
X1220380Y58804D01*
X1221860Y56449D01*
X1223067Y53942D01*
X1223985Y51317D01*
X1224604Y48605D01*
X1224786Y46989D01*
X1202689Y46989D01*
G37*
%LPD*%
%LPC*%
G36*
X1202689Y41911D02*
X1202689Y41911D01*
X1224786Y41911D01*
X1224604Y40295D01*
X1223985Y37583D01*
X1223067Y34958D01*
X1221860Y32451D01*
X1220380Y30096D01*
X1218645Y27921D01*
X1216679Y25955D01*
X1214504Y24220D01*
X1212149Y22740D01*
X1209642Y21533D01*
X1207017Y20615D01*
X1204305Y19996D01*
X1202689Y19814D01*
X1202689Y41911D01*
G37*
%LPD*%
%LPC*%
G36*
X40639Y35561D02*
X40639Y35561D01*
X62736Y35561D01*
X62554Y33945D01*
X61935Y31233D01*
X61017Y28608D01*
X59810Y26101D01*
X58330Y23746D01*
X56595Y21571D01*
X54629Y19605D01*
X52454Y17870D01*
X50099Y16390D01*
X47592Y15183D01*
X44967Y14265D01*
X42255Y13646D01*
X40639Y13464D01*
X40639Y35561D01*
G37*
%LPD*%
%LPC*%
G36*
X1175514Y46989D02*
X1175514Y46989D01*
X1175696Y48605D01*
X1176315Y51317D01*
X1177233Y53942D01*
X1178440Y56449D01*
X1179920Y58804D01*
X1181655Y60979D01*
X1183621Y62945D01*
X1185796Y64680D01*
X1188151Y66160D01*
X1190658Y67367D01*
X1193283Y68285D01*
X1195995Y68904D01*
X1197611Y69086D01*
X1197611Y46989D01*
X1175514Y46989D01*
G37*
%LPD*%
%LPC*%
G36*
X13464Y40639D02*
X13464Y40639D01*
X13646Y42255D01*
X14265Y44967D01*
X15183Y47592D01*
X16390Y50099D01*
X17870Y52454D01*
X19605Y54629D01*
X21571Y56595D01*
X23746Y58330D01*
X26101Y59810D01*
X28608Y61017D01*
X31233Y61935D01*
X33945Y62554D01*
X35561Y62736D01*
X35561Y40639D01*
X13464Y40639D01*
G37*
%LPD*%
%LPC*%
G36*
X33945Y13646D02*
X33945Y13646D01*
X31233Y14265D01*
X28608Y15183D01*
X26101Y16390D01*
X23746Y17870D01*
X21571Y19605D01*
X19605Y21571D01*
X17870Y23746D01*
X16390Y26101D01*
X15183Y28608D01*
X14265Y31233D01*
X13646Y33945D01*
X13464Y35561D01*
X35561Y35561D01*
X35561Y13464D01*
X33945Y13646D01*
G37*
%LPD*%
%LPC*%
G36*
X1195995Y19996D02*
X1195995Y19996D01*
X1193283Y20615D01*
X1190658Y21533D01*
X1188151Y22740D01*
X1185796Y24220D01*
X1183621Y25955D01*
X1181655Y27921D01*
X1179920Y30096D01*
X1178440Y32451D01*
X1177233Y34958D01*
X1176315Y37583D01*
X1175696Y40295D01*
X1175514Y41911D01*
X1197611Y41911D01*
X1197611Y19814D01*
X1195995Y19996D01*
G37*
%LPD*%
%LPC*%
G36*
X1198879Y957579D02*
X1198879Y957579D01*
X1198879Y976743D01*
X1200667Y976335D01*
X1203292Y975417D01*
X1205799Y974210D01*
X1208154Y972730D01*
X1210329Y970996D01*
X1212296Y969029D01*
X1214030Y966854D01*
X1215510Y964499D01*
X1216717Y961992D01*
X1217635Y959367D01*
X1218043Y957579D01*
X1198879Y957579D01*
G37*
%LPD*%
%LPC*%
G36*
X43179Y970279D02*
X43179Y970279D01*
X43179Y989443D01*
X44967Y989035D01*
X47592Y988117D01*
X50099Y986910D01*
X52454Y985430D01*
X54629Y983696D01*
X56596Y981729D01*
X58330Y979554D01*
X59810Y977199D01*
X61017Y974692D01*
X61935Y972067D01*
X62343Y970279D01*
X43179Y970279D01*
G37*
%LPD*%
%LPC*%
G36*
X43179Y960121D02*
X43179Y960121D01*
X62343Y960121D01*
X61935Y958333D01*
X61017Y955708D01*
X59810Y953201D01*
X58330Y950846D01*
X56596Y948671D01*
X54629Y946704D01*
X52454Y944970D01*
X50099Y943490D01*
X47592Y942283D01*
X44967Y941365D01*
X43179Y940957D01*
X43179Y960121D01*
G37*
%LPD*%
%LPC*%
G36*
X1198879Y947421D02*
X1198879Y947421D01*
X1218043Y947421D01*
X1217635Y945633D01*
X1216717Y943008D01*
X1215510Y940501D01*
X1214030Y938146D01*
X1212296Y935971D01*
X1210329Y934004D01*
X1208154Y932270D01*
X1205799Y930790D01*
X1203292Y929583D01*
X1200667Y928665D01*
X1198879Y928257D01*
X1198879Y947421D01*
G37*
%LPD*%
%LPC*%
G36*
X1169557Y957579D02*
X1169557Y957579D01*
X1169965Y959367D01*
X1170883Y961992D01*
X1172090Y964499D01*
X1173570Y966854D01*
X1175304Y969029D01*
X1177271Y970996D01*
X1179446Y972730D01*
X1181801Y974210D01*
X1184308Y975417D01*
X1186933Y976335D01*
X1188721Y976743D01*
X1188721Y957579D01*
X1169557Y957579D01*
G37*
%LPD*%
%LPC*%
G36*
X13857Y970279D02*
X13857Y970279D01*
X14265Y972067D01*
X15183Y974692D01*
X16390Y977199D01*
X17870Y979554D01*
X19604Y981729D01*
X21571Y983696D01*
X23746Y985430D01*
X26101Y986910D01*
X28608Y988117D01*
X31233Y989035D01*
X33021Y989443D01*
X33021Y970279D01*
X13857Y970279D01*
G37*
%LPD*%
%LPC*%
G36*
X1186933Y928665D02*
X1186933Y928665D01*
X1184308Y929583D01*
X1181801Y930790D01*
X1179446Y932270D01*
X1177271Y934004D01*
X1175304Y935971D01*
X1173570Y938146D01*
X1172090Y940501D01*
X1170883Y943008D01*
X1169965Y945633D01*
X1169557Y947421D01*
X1188721Y947421D01*
X1188721Y928257D01*
X1186933Y928665D01*
G37*
%LPD*%
%LPC*%
G36*
X31233Y941365D02*
X31233Y941365D01*
X28608Y942283D01*
X26101Y943490D01*
X23746Y944970D01*
X21571Y946704D01*
X19604Y948671D01*
X17870Y950846D01*
X16390Y953201D01*
X15183Y955708D01*
X14265Y958333D01*
X13857Y960121D01*
X33021Y960121D01*
X33021Y940957D01*
X31233Y941365D01*
G37*
%LPD*%
%LPC*%
G36*
X1082039Y975239D02*
X1082039Y975239D01*
X1082039Y979741D01*
X1084335Y979741D01*
X1084981Y979568D01*
X1085560Y979233D01*
X1086033Y978760D01*
X1086368Y978181D01*
X1086541Y977535D01*
X1086541Y975239D01*
X1082039Y975239D01*
G37*
%LPD*%
%LPC*%
G36*
X1072459Y975239D02*
X1072459Y975239D01*
X1072459Y977535D01*
X1072632Y978181D01*
X1072967Y978760D01*
X1073440Y979233D01*
X1074019Y979568D01*
X1074665Y979741D01*
X1076961Y979741D01*
X1076961Y975239D01*
X1072459Y975239D01*
G37*
%LPD*%
%LPC*%
G36*
X38099Y965199D02*
X38099Y965199D01*
X38099Y965201D01*
X38101Y965201D01*
X38101Y965199D01*
X38099Y965199D01*
G37*
%LPD*%
%LPC*%
G36*
X38099Y38099D02*
X38099Y38099D01*
X38099Y38101D01*
X38101Y38101D01*
X38101Y38099D01*
X38099Y38099D01*
G37*
%LPD*%
%LPC*%
G36*
X1200149Y44449D02*
X1200149Y44449D01*
X1200149Y44451D01*
X1200151Y44451D01*
X1200151Y44449D01*
X1200149Y44449D01*
G37*
%LPD*%
%LPC*%
G36*
X1193799Y952499D02*
X1193799Y952499D01*
X1193799Y952501D01*
X1193801Y952501D01*
X1193801Y952499D01*
X1193799Y952499D01*
G37*
%LPD*%
D10*
X330200Y914400D03*
X355600Y914400D03*
D11*
X1092600Y88900D03*
X1117600Y88900D03*
X1142600Y88900D03*
D12*
X608600Y825100D03*
X608600Y775100D03*
X483600Y775100D03*
X483600Y825100D03*
D13*
X914400Y756800D03*
X914400Y741800D03*
D14*
X122600Y390900D03*
D15*
X122600Y416300D03*
X148000Y390900D03*
X148000Y416300D03*
X173400Y390900D03*
X173400Y416300D03*
X198800Y390900D03*
X198800Y416300D03*
X224200Y390900D03*
X224200Y416300D03*
X249600Y390900D03*
X249600Y416300D03*
X275000Y390900D03*
X275000Y416300D03*
X300400Y390900D03*
X300400Y416300D03*
X325800Y390900D03*
X325800Y416300D03*
X351200Y390900D03*
X351200Y416300D03*
X376600Y390900D03*
X376600Y416300D03*
X402000Y390900D03*
X402000Y416300D03*
X427400Y390900D03*
X427400Y416300D03*
X452800Y390900D03*
X452800Y416300D03*
X478200Y390900D03*
X478200Y416300D03*
X503600Y390900D03*
X503600Y416300D03*
X529000Y390900D03*
X529000Y416300D03*
X554400Y390900D03*
X554400Y416300D03*
D14*
X122600Y644900D03*
D15*
X122600Y670300D03*
X148000Y644900D03*
X148000Y670300D03*
X173400Y644900D03*
X173400Y670300D03*
X198800Y644900D03*
X198800Y670300D03*
X224200Y644900D03*
X224200Y670300D03*
X249600Y644900D03*
X249600Y670300D03*
X275000Y644900D03*
X275000Y670300D03*
X300400Y644900D03*
X300400Y670300D03*
X325800Y644900D03*
X325800Y670300D03*
X351200Y644900D03*
X351200Y670300D03*
X376600Y644900D03*
X376600Y670300D03*
X402000Y644900D03*
X402000Y670300D03*
X427400Y644900D03*
X427400Y670300D03*
X452800Y644900D03*
X452800Y670300D03*
X478200Y644900D03*
X478200Y670300D03*
X503600Y644900D03*
X503600Y670300D03*
X529000Y644900D03*
X529000Y670300D03*
X554400Y644900D03*
X554400Y670300D03*
D10*
X381000Y914400D03*
X406400Y914400D03*
X431800Y914400D03*
X457200Y914400D03*
D11*
X533800Y76200D03*
X558800Y76200D03*
X583800Y76200D03*
D12*
X851900Y140100D03*
X851900Y190100D03*
X976900Y190100D03*
X976900Y140100D03*
D13*
X1018660Y193040D03*
X1033660Y193040D03*
D16*
X203200Y203200D03*
D17*
X228200Y203200D03*
X248200Y203200D03*
X273200Y203200D03*
D18*
X172500Y176100D03*
X303900Y176100D03*
D19*
X38100Y965200D03*
D20*
X76200Y76200D03*
X1143000Y914400D03*
X1143000Y63500D03*
D19*
X38100Y38100D03*
X1200150Y44450D03*
X1193800Y952500D03*
D13*
X1079500Y957700D03*
X1079500Y972700D03*
D21*
X88900Y277850D03*
X88900Y242850D03*
D22*
X416560Y924560D02*
X416560Y939800D01*
X416560Y924560D02*
X406400Y914400D01*
X457200Y914400D02*
X459740Y916940D01*
X459740Y932180D01*
X467360Y939800D01*
X400050Y787400D02*
X304800Y787400D01*
X304800Y774700D01*
X300400Y390900D02*
X317500Y373800D01*
X317500Y368300D01*
X330200Y368300D01*
X330200Y386500D01*
X325800Y390900D01*
X292100Y373800D02*
X275000Y390900D01*
X292100Y373800D02*
X292100Y368300D01*
X304800Y368300D01*
X317500Y368300D01*
X304800Y368300D02*
X304800Y355600D01*
D23*
X304800Y355600D03*
D22*
X376600Y644900D02*
X390570Y644900D01*
X300400Y416300D02*
X300400Y390900D01*
D23*
X63500Y284480D03*
X63500Y274320D03*
X63500Y264160D03*
X114300Y284480D03*
X114300Y274320D03*
X114300Y264160D03*
D24*
X304800Y774700D03*
X416560Y939800D03*
X467360Y939800D03*
D22*
X355600Y944880D02*
X355600Y914400D01*
D24*
X355600Y944880D03*
D22*
X583800Y76200D02*
X584200Y75800D01*
X584200Y60960D01*
D24*
X584200Y60960D03*
D25*
X273200Y203200D02*
X273200Y227180D01*
X271780Y228600D01*
D24*
X271780Y228600D03*
D25*
X1142600Y88900D02*
X1142600Y88100D01*
X1110380Y55880D01*
X1079500Y55880D01*
D24*
X1079500Y55880D03*
D25*
X1137920Y774700D02*
X1087520Y825100D01*
X483600Y825100D01*
D24*
X1137920Y774700D03*
D25*
X1107440Y774700D02*
X1057040Y825100D01*
X608600Y825100D01*
D24*
X1107440Y774700D03*
X817880Y139700D03*
D25*
X1089780Y947420D02*
X1117600Y947420D01*
X1089780Y947420D02*
X1079500Y957700D01*
D24*
X1117600Y947420D03*
X971804Y543560D03*
D25*
X971804Y534416D01*
X972820Y533400D01*
D24*
X972820Y533400D03*
D22*
X851900Y140100D02*
X851500Y139700D01*
X817880Y139700D01*
X976900Y140100D02*
X1002900Y140100D01*
X1003300Y139700D01*
D24*
X1003300Y139700D03*
D22*
X304800Y682065D02*
X304800Y774700D01*
X304800Y682065D02*
X311830Y675035D01*
X311830Y656330D01*
X300400Y644900D01*
X390570Y675035D02*
X400050Y684515D01*
X400050Y787400D01*
X88900Y277850D02*
X85370Y274320D01*
X63500Y274320D01*
X402000Y639400D02*
X402000Y644900D01*
X402000Y639400D02*
X414700Y626700D01*
D24*
X414700Y626700D03*
D25*
X914400Y717550D02*
X914400Y741800D01*
D24*
X914400Y717550D03*
D25*
X1033660Y193040D02*
X1033780Y192920D01*
X1033780Y168910D01*
D24*
X1033780Y168910D03*
X949960Y538480D03*
D25*
X955040Y543560D01*
X960120Y543560D01*
D24*
X960120Y543560D03*
D22*
X608600Y775100D02*
X483600Y775100D01*
X1003300Y774700D02*
X1003300Y419100D01*
X989070Y404870D01*
X565150Y404870D01*
X562366Y404870D01*
X911167Y777333D02*
X914400Y777333D01*
X1000667Y777333D01*
X1003300Y774700D01*
X912167Y775100D02*
X608600Y775100D01*
X912167Y775100D02*
X913084Y776016D01*
X914400Y777333D01*
X913084Y758116D02*
X914400Y756800D01*
X913084Y758116D02*
X913084Y776016D01*
X538236Y416300D02*
X529000Y416300D01*
X549666Y404870D02*
X562366Y404870D01*
X549666Y404870D02*
X538236Y416300D01*
X203200Y203200D02*
X182880Y223520D01*
X173400Y233000D01*
X173400Y390900D01*
X270266Y427730D02*
X355935Y427730D01*
X359166Y404870D02*
X390570Y404870D01*
X402000Y416300D01*
X318980Y499320D01*
X318980Y512020D01*
X275000Y556000D01*
X275000Y644900D01*
D23*
X66040Y243840D03*
X66040Y233680D03*
X66040Y223520D03*
X114300Y223520D03*
X114300Y233680D03*
X114300Y243840D03*
D22*
X114300Y223520D02*
X182880Y223520D01*
X87910Y243840D02*
X66040Y243840D01*
X87910Y243840D02*
X88900Y242850D01*
X113310Y242850D01*
X114300Y243840D01*
X113310Y234670D02*
X114300Y233680D01*
X113310Y234670D02*
X113310Y242850D01*
X114300Y233680D02*
X114300Y223520D01*
X66040Y223520D02*
X66040Y233680D01*
X66040Y243840D01*
X254335Y404870D02*
X261030Y411566D01*
X243840Y404870D02*
X241300Y402330D01*
X243840Y404870D02*
X254335Y404870D01*
X261030Y411566D02*
X261030Y418495D01*
X270266Y427730D01*
X355935Y427730D02*
X362630Y421035D01*
X362630Y411566D01*
X359166Y408101D01*
X359166Y404870D01*
X184830Y402330D02*
X173400Y390900D01*
X184830Y402330D02*
X241300Y402330D01*
X325800Y407065D02*
X325800Y416300D01*
X325800Y407065D02*
X337230Y395635D01*
X533600Y76400D02*
X533800Y76200D01*
X533600Y76400D02*
X337230Y272770D01*
X337230Y395635D01*
X1054500Y50800D02*
X1092600Y88900D01*
X533400Y76200D02*
X533400Y50800D01*
X533400Y76200D02*
X533600Y76400D01*
X533400Y50800D02*
X1054500Y50800D01*
X1106790Y99710D02*
X1117600Y88900D01*
X1106790Y99710D02*
X673100Y99710D01*
X604990Y162510D02*
X376600Y390900D01*
X604990Y162510D02*
X615556Y162510D01*
X625110Y152956D01*
X625110Y147700D01*
X673100Y99710D01*
X851900Y190100D02*
X976900Y190100D01*
X990300Y203500D01*
X1041400Y254600D01*
X1041400Y749300D01*
X1168400Y749300D01*
X1168400Y889000D01*
X469900Y889000D01*
X469900Y723900D01*
X546100Y723900D01*
X546100Y678165D01*
X542970Y675035D01*
X542970Y658870D02*
X529000Y644900D01*
X542970Y658870D02*
X542970Y675035D01*
X1008200Y203500D02*
X1018660Y193040D01*
X1008200Y203500D02*
X990300Y203500D01*
X363900Y273050D02*
X363900Y378200D01*
X351200Y390900D01*
X492490Y144460D02*
X492490Y139444D01*
X502044Y129890D01*
X505110Y129890D01*
X558800Y76200D01*
X492490Y144460D02*
X363900Y273050D01*
X38100Y38100D02*
X35560Y38100D01*
X23368Y50292D01*
X1079500Y972700D02*
X1085208Y978408D01*
X38100Y965200D02*
X27940Y955040D01*
X172500Y176100D02*
X172720Y175880D01*
X172720Y45466D01*
X303900Y176100D02*
X307340Y172660D01*
X307340Y146812D01*
X172720Y45466D02*
X169291Y42037D01*
X165354Y38100D01*
X38100Y38100D01*
X169291Y42037D02*
X303657Y42037D01*
X310134Y48514D01*
X310134Y144018D01*
X307340Y146812D01*
M02*
