G04 EAGLE Gerber RS-274X export*
G75*
%MOMM*%
%FSLAX34Y34*%
%LPD*%
%INCopper Layer 15*%
%IPPOS*%
%AMOC8*
5,1,8,0,0,1.08239X$1,22.5*%
G01*
%ADD10C,1.137919*%
%ADD11C,1.400000*%
%ADD12C,1.960000*%
%ADD13C,1.244600*%
%ADD14C,1.288000*%
%ADD15C,3.220000*%
%ADD16C,4.191000*%
%ADD17C,0.654800*%
%ADD18C,0.914400*%

G36*
X1253408Y2559D02*
X1253408Y2559D01*
X1253527Y2567D01*
X1253565Y2579D01*
X1253604Y2584D01*
X1253716Y2628D01*
X1253829Y2665D01*
X1253863Y2686D01*
X1253900Y2701D01*
X1253997Y2771D01*
X1254098Y2835D01*
X1254125Y2864D01*
X1254158Y2887D01*
X1254234Y2979D01*
X1254316Y3067D01*
X1254335Y3102D01*
X1254361Y3132D01*
X1254412Y3240D01*
X1254470Y3345D01*
X1254480Y3384D01*
X1254497Y3420D01*
X1254519Y3538D01*
X1254549Y3653D01*
X1254553Y3712D01*
X1254557Y3732D01*
X1254555Y3753D01*
X1254559Y3814D01*
X1254559Y996190D01*
X1254544Y996308D01*
X1254537Y996427D01*
X1254524Y996465D01*
X1254519Y996506D01*
X1254476Y996616D01*
X1254439Y996729D01*
X1254417Y996764D01*
X1254402Y996801D01*
X1254333Y996897D01*
X1254269Y996998D01*
X1254239Y997026D01*
X1254216Y997059D01*
X1254124Y997135D01*
X1254037Y997216D01*
X1254002Y997236D01*
X1253971Y997261D01*
X1253863Y997312D01*
X1253759Y997370D01*
X1253719Y997380D01*
X1253683Y997397D01*
X1253566Y997419D01*
X1253451Y997449D01*
X1253391Y997453D01*
X1253371Y997457D01*
X1253350Y997455D01*
X1253290Y997459D01*
X3814Y997459D01*
X3695Y997444D01*
X3576Y997437D01*
X3538Y997424D01*
X3498Y997419D01*
X3387Y997375D01*
X3273Y997338D01*
X3240Y997317D01*
X3203Y997302D01*
X3106Y997232D01*
X3005Y997168D01*
X2978Y997139D01*
X2945Y997116D01*
X2869Y997023D01*
X2787Y996936D01*
X2768Y996901D01*
X2742Y996871D01*
X2692Y996762D01*
X2634Y996657D01*
X2624Y996619D01*
X2607Y996583D01*
X2584Y996465D01*
X2555Y996349D01*
X2551Y996290D01*
X2547Y996271D01*
X2548Y996250D01*
X2545Y996189D01*
X3553Y5075D01*
X3568Y4958D01*
X3575Y4840D01*
X3588Y4801D01*
X3593Y4759D01*
X3636Y4650D01*
X3673Y4538D01*
X3695Y4502D01*
X3710Y4464D01*
X3780Y4369D01*
X3843Y4269D01*
X3873Y4240D01*
X3897Y4207D01*
X3988Y4132D01*
X4074Y4051D01*
X4110Y4031D01*
X4143Y4004D01*
X4249Y3954D01*
X4352Y3897D01*
X4393Y3887D01*
X4430Y3869D01*
X4546Y3847D01*
X4660Y3817D01*
X4722Y3813D01*
X4743Y3809D01*
X4763Y3811D01*
X4821Y3807D01*
X1253289Y2545D01*
X1253408Y2559D01*
G37*
%LPC*%
G36*
X33426Y941704D02*
X33426Y941704D01*
X24791Y945281D01*
X18181Y951891D01*
X14604Y960526D01*
X14604Y969874D01*
X18181Y978509D01*
X24791Y985119D01*
X33426Y988696D01*
X42774Y988696D01*
X51409Y985119D01*
X58019Y978509D01*
X61596Y969874D01*
X61596Y960526D01*
X58019Y951891D01*
X51409Y945281D01*
X42774Y941704D01*
X33426Y941704D01*
G37*
%LPD*%
%LPC*%
G36*
X1189126Y929004D02*
X1189126Y929004D01*
X1180491Y932581D01*
X1173881Y939191D01*
X1170304Y947826D01*
X1170304Y957174D01*
X1173881Y965809D01*
X1180491Y972419D01*
X1189126Y975996D01*
X1198474Y975996D01*
X1207109Y972419D01*
X1213719Y965809D01*
X1217296Y957174D01*
X1217296Y947826D01*
X1213719Y939191D01*
X1207109Y932581D01*
X1198474Y929004D01*
X1189126Y929004D01*
G37*
%LPD*%
%LPC*%
G36*
X1195476Y20954D02*
X1195476Y20954D01*
X1186841Y24531D01*
X1180231Y31141D01*
X1176654Y39776D01*
X1176654Y49124D01*
X1180231Y57759D01*
X1186841Y64369D01*
X1195476Y67946D01*
X1204824Y67946D01*
X1213459Y64369D01*
X1220069Y57759D01*
X1223646Y49124D01*
X1223646Y39776D01*
X1220069Y31141D01*
X1213459Y24531D01*
X1204824Y20954D01*
X1195476Y20954D01*
G37*
%LPD*%
%LPC*%
G36*
X33426Y14604D02*
X33426Y14604D01*
X24791Y18181D01*
X18181Y24791D01*
X14604Y33426D01*
X14604Y42774D01*
X18181Y51409D01*
X24791Y58019D01*
X33426Y61596D01*
X42774Y61596D01*
X51409Y58019D01*
X58019Y51409D01*
X61596Y42774D01*
X61596Y33426D01*
X58019Y24791D01*
X51409Y18181D01*
X42774Y14604D01*
X33426Y14604D01*
G37*
%LPD*%
%LPC*%
G36*
X300192Y157459D02*
X300192Y157459D01*
X293341Y160297D01*
X288097Y165541D01*
X285259Y172392D01*
X285259Y179808D01*
X288097Y186659D01*
X293341Y191903D01*
X300192Y194741D01*
X307608Y194741D01*
X314459Y191903D01*
X319703Y186659D01*
X322541Y179808D01*
X322541Y172392D01*
X319703Y165541D01*
X314459Y160297D01*
X307608Y157459D01*
X300192Y157459D01*
G37*
%LPD*%
%LPC*%
G36*
X168792Y157459D02*
X168792Y157459D01*
X161941Y160297D01*
X156697Y165541D01*
X153859Y172392D01*
X153859Y179808D01*
X156697Y186659D01*
X161941Y191903D01*
X168792Y194741D01*
X176208Y194741D01*
X183059Y191903D01*
X188303Y186659D01*
X191141Y179808D01*
X191141Y172392D01*
X188303Y165541D01*
X183059Y160297D01*
X176208Y157459D01*
X168792Y157459D01*
G37*
%LPD*%
%LPC*%
G36*
X605808Y131159D02*
X605808Y131159D01*
X600280Y133449D01*
X596049Y137680D01*
X593759Y143208D01*
X593759Y149192D01*
X596049Y154720D01*
X600280Y158951D01*
X605808Y161241D01*
X611792Y161241D01*
X617320Y158951D01*
X621551Y154720D01*
X623841Y149192D01*
X623841Y143208D01*
X621551Y137680D01*
X617320Y133449D01*
X611792Y131159D01*
X605808Y131159D01*
G37*
%LPD*%
%LPC*%
G36*
X1164608Y143859D02*
X1164608Y143859D01*
X1159080Y146149D01*
X1154849Y150380D01*
X1152559Y155908D01*
X1152559Y161892D01*
X1154849Y167420D01*
X1159080Y171651D01*
X1164608Y173941D01*
X1170592Y173941D01*
X1176120Y171651D01*
X1180351Y167420D01*
X1182641Y161892D01*
X1182641Y155908D01*
X1180351Y150380D01*
X1176120Y146149D01*
X1170592Y143859D01*
X1164608Y143859D01*
G37*
%LPD*%
%LPC*%
G36*
X1064608Y143859D02*
X1064608Y143859D01*
X1059080Y146149D01*
X1054849Y150380D01*
X1052559Y155908D01*
X1052559Y161892D01*
X1054849Y167420D01*
X1059080Y171651D01*
X1064608Y173941D01*
X1070592Y173941D01*
X1076120Y171651D01*
X1080351Y167420D01*
X1082641Y161892D01*
X1082641Y155908D01*
X1080351Y150380D01*
X1076120Y146149D01*
X1070592Y143859D01*
X1064608Y143859D01*
G37*
%LPD*%
%LPC*%
G36*
X505808Y131159D02*
X505808Y131159D01*
X500280Y133449D01*
X496049Y137680D01*
X493759Y143208D01*
X493759Y149192D01*
X496049Y154720D01*
X500280Y158951D01*
X505808Y161241D01*
X511792Y161241D01*
X517320Y158951D01*
X521551Y154720D01*
X523841Y149192D01*
X523841Y143208D01*
X521551Y137680D01*
X517320Y133449D01*
X511792Y131159D01*
X505808Y131159D01*
G37*
%LPD*%
%LPC*%
G36*
X226414Y194219D02*
X226414Y194219D01*
X223113Y195586D01*
X220586Y198113D01*
X219219Y201414D01*
X219219Y204986D01*
X220586Y208287D01*
X223113Y210814D01*
X226414Y212181D01*
X229986Y212181D01*
X233287Y210814D01*
X235814Y208287D01*
X237027Y205357D01*
X237096Y205236D01*
X237161Y205113D01*
X237175Y205098D01*
X237185Y205080D01*
X237282Y204980D01*
X237375Y204878D01*
X237392Y204866D01*
X237406Y204852D01*
X237524Y204779D01*
X237641Y204703D01*
X237660Y204696D01*
X237677Y204686D01*
X237810Y204645D01*
X237942Y204600D01*
X237962Y204598D01*
X237981Y204592D01*
X238120Y204585D01*
X238259Y204574D01*
X238279Y204578D01*
X238299Y204577D01*
X238435Y204605D01*
X238572Y204629D01*
X238591Y204637D01*
X238610Y204641D01*
X238735Y204702D01*
X238862Y204759D01*
X238878Y204772D01*
X238896Y204781D01*
X239002Y204871D01*
X239110Y204958D01*
X239123Y204974D01*
X239138Y204987D01*
X239218Y205101D01*
X239302Y205212D01*
X239314Y205237D01*
X239321Y205247D01*
X239328Y205267D01*
X239373Y205357D01*
X240586Y208287D01*
X243113Y210814D01*
X246414Y212181D01*
X249986Y212181D01*
X253287Y210814D01*
X255814Y208287D01*
X257181Y204986D01*
X257181Y201414D01*
X255814Y198113D01*
X253287Y195586D01*
X249986Y194219D01*
X246414Y194219D01*
X243113Y195586D01*
X240586Y198113D01*
X239373Y201043D01*
X239360Y201065D01*
X239353Y201087D01*
X239301Y201168D01*
X239239Y201287D01*
X239225Y201302D01*
X239215Y201320D01*
X239188Y201348D01*
X239183Y201356D01*
X239152Y201385D01*
X239118Y201420D01*
X239025Y201522D01*
X239008Y201533D01*
X238994Y201548D01*
X238875Y201621D01*
X238759Y201697D01*
X238740Y201704D01*
X238723Y201714D01*
X238590Y201755D01*
X238458Y201800D01*
X238438Y201802D01*
X238419Y201808D01*
X238280Y201815D01*
X238141Y201826D01*
X238121Y201822D01*
X238101Y201823D01*
X237965Y201795D01*
X237828Y201771D01*
X237809Y201763D01*
X237790Y201759D01*
X237664Y201697D01*
X237538Y201641D01*
X237522Y201628D01*
X237504Y201619D01*
X237398Y201529D01*
X237340Y201483D01*
X237327Y201473D01*
X237325Y201470D01*
X237290Y201442D01*
X237277Y201426D01*
X237262Y201413D01*
X237182Y201299D01*
X237170Y201283D01*
X237124Y201228D01*
X237118Y201214D01*
X237098Y201188D01*
X237086Y201163D01*
X237079Y201153D01*
X237072Y201133D01*
X237027Y201043D01*
X235814Y198113D01*
X233287Y195586D01*
X229986Y194219D01*
X226414Y194219D01*
G37*
%LPD*%
%LPC*%
G36*
X974445Y127759D02*
X974445Y127759D01*
X969910Y129638D01*
X966438Y133110D01*
X964559Y137645D01*
X964559Y142555D01*
X966438Y147090D01*
X969910Y150562D01*
X974445Y152441D01*
X979355Y152441D01*
X983890Y150562D01*
X987362Y147090D01*
X989241Y142555D01*
X989241Y137645D01*
X987362Y133110D01*
X983890Y129638D01*
X979355Y127759D01*
X974445Y127759D01*
G37*
%LPD*%
%LPC*%
G36*
X606145Y812759D02*
X606145Y812759D01*
X601610Y814638D01*
X598138Y818110D01*
X596259Y822645D01*
X596259Y827555D01*
X598138Y832090D01*
X601610Y835562D01*
X606145Y837441D01*
X611055Y837441D01*
X615590Y835562D01*
X619062Y832090D01*
X620941Y827555D01*
X620941Y822645D01*
X619062Y818110D01*
X615590Y814638D01*
X611055Y812759D01*
X606145Y812759D01*
G37*
%LPD*%
%LPC*%
G36*
X481145Y812759D02*
X481145Y812759D01*
X476610Y814638D01*
X473138Y818110D01*
X471259Y822645D01*
X471259Y827555D01*
X473138Y832090D01*
X476610Y835562D01*
X481145Y837441D01*
X486055Y837441D01*
X490590Y835562D01*
X494062Y832090D01*
X495941Y827555D01*
X495941Y822645D01*
X494062Y818110D01*
X490590Y814638D01*
X486055Y812759D01*
X481145Y812759D01*
G37*
%LPD*%
%LPC*%
G36*
X606145Y762759D02*
X606145Y762759D01*
X601610Y764638D01*
X598138Y768110D01*
X596259Y772645D01*
X596259Y777555D01*
X598138Y782090D01*
X601610Y785562D01*
X606145Y787441D01*
X611055Y787441D01*
X615590Y785562D01*
X619062Y782090D01*
X620941Y777555D01*
X620941Y772645D01*
X619062Y768110D01*
X615590Y764638D01*
X611055Y762759D01*
X606145Y762759D01*
G37*
%LPD*%
%LPC*%
G36*
X481145Y762759D02*
X481145Y762759D01*
X476610Y764638D01*
X473138Y768110D01*
X471259Y772645D01*
X471259Y777555D01*
X473138Y782090D01*
X476610Y785562D01*
X481145Y787441D01*
X486055Y787441D01*
X490590Y785562D01*
X494062Y782090D01*
X495941Y777555D01*
X495941Y772645D01*
X494062Y768110D01*
X490590Y764638D01*
X486055Y762759D01*
X481145Y762759D01*
G37*
%LPD*%
%LPC*%
G36*
X974445Y177759D02*
X974445Y177759D01*
X969910Y179638D01*
X966438Y183110D01*
X964559Y187645D01*
X964559Y192555D01*
X966438Y197090D01*
X969910Y200562D01*
X974445Y202441D01*
X979355Y202441D01*
X983890Y200562D01*
X987362Y197090D01*
X989241Y192555D01*
X989241Y187645D01*
X987362Y183110D01*
X983890Y179638D01*
X979355Y177759D01*
X974445Y177759D01*
G37*
%LPD*%
%LPC*%
G36*
X849445Y127759D02*
X849445Y127759D01*
X844910Y129638D01*
X841438Y133110D01*
X839559Y137645D01*
X839559Y142555D01*
X841438Y147090D01*
X844910Y150562D01*
X849445Y152441D01*
X854355Y152441D01*
X858890Y150562D01*
X862362Y147090D01*
X864241Y142555D01*
X864241Y137645D01*
X862362Y133110D01*
X858890Y129638D01*
X854355Y127759D01*
X849445Y127759D01*
G37*
%LPD*%
%LPC*%
G36*
X849445Y177759D02*
X849445Y177759D01*
X844910Y179638D01*
X841438Y183110D01*
X839559Y187645D01*
X839559Y192555D01*
X841438Y197090D01*
X844910Y200562D01*
X849445Y202441D01*
X854355Y202441D01*
X858890Y200562D01*
X862362Y197090D01*
X864241Y192555D01*
X864241Y187645D01*
X862362Y183110D01*
X858890Y179638D01*
X854355Y177759D01*
X849445Y177759D01*
G37*
%LPD*%
%LPC*%
G36*
X582785Y53847D02*
X582785Y53847D01*
X580171Y54930D01*
X578170Y56931D01*
X577087Y59545D01*
X577087Y62375D01*
X578170Y64989D01*
X579101Y65920D01*
X579132Y65959D01*
X579168Y65993D01*
X579229Y66084D01*
X579296Y66171D01*
X579316Y66217D01*
X579343Y66258D01*
X579379Y66362D01*
X579422Y66463D01*
X579430Y66512D01*
X579446Y66559D01*
X579455Y66668D01*
X579472Y66777D01*
X579468Y66827D01*
X579471Y66876D01*
X579453Y66984D01*
X579442Y67094D01*
X579426Y67141D01*
X579417Y67190D01*
X579372Y67290D01*
X579335Y67393D01*
X579307Y67434D01*
X579286Y67480D01*
X579218Y67565D01*
X579156Y67656D01*
X579119Y67689D01*
X579088Y67728D01*
X579000Y67794D01*
X578918Y67867D01*
X578873Y67889D01*
X578834Y67919D01*
X578689Y67990D01*
X578396Y68112D01*
X575712Y70796D01*
X574259Y74302D01*
X574259Y78098D01*
X575712Y81604D01*
X578396Y84288D01*
X581902Y85741D01*
X585698Y85741D01*
X589204Y84288D01*
X591888Y81604D01*
X593341Y78098D01*
X593341Y74302D01*
X591888Y70796D01*
X589053Y67961D01*
X588980Y67866D01*
X588901Y67777D01*
X588883Y67741D01*
X588858Y67709D01*
X588811Y67600D01*
X588757Y67494D01*
X588748Y67455D01*
X588732Y67418D01*
X588713Y67300D01*
X588687Y67184D01*
X588688Y67143D01*
X588682Y67103D01*
X588693Y66985D01*
X588697Y66866D01*
X588708Y66827D01*
X588712Y66787D01*
X588752Y66675D01*
X588785Y66560D01*
X588806Y66526D01*
X588820Y66488D01*
X588886Y66389D01*
X588947Y66286D01*
X588987Y66241D01*
X588998Y66224D01*
X589013Y66211D01*
X589053Y66166D01*
X590230Y64989D01*
X591313Y62375D01*
X591313Y59545D01*
X590230Y56931D01*
X588229Y54930D01*
X585615Y53847D01*
X582785Y53847D01*
G37*
%LPD*%
%LPC*%
G36*
X62343Y258345D02*
X62343Y258345D01*
X60206Y259230D01*
X58570Y260866D01*
X57685Y263003D01*
X57685Y265317D01*
X58570Y267454D01*
X59459Y268343D01*
X59532Y268437D01*
X59611Y268526D01*
X59629Y268562D01*
X59654Y268594D01*
X59702Y268703D01*
X59756Y268809D01*
X59764Y268848D01*
X59781Y268886D01*
X59799Y269003D01*
X59825Y269119D01*
X59824Y269160D01*
X59830Y269200D01*
X59819Y269318D01*
X59816Y269437D01*
X59804Y269476D01*
X59801Y269516D01*
X59760Y269628D01*
X59727Y269743D01*
X59707Y269778D01*
X59693Y269816D01*
X59626Y269914D01*
X59566Y270017D01*
X59526Y270062D01*
X59514Y270079D01*
X59499Y270092D01*
X59459Y270138D01*
X58570Y271026D01*
X57685Y273163D01*
X57685Y275477D01*
X58570Y277614D01*
X59459Y278503D01*
X59532Y278597D01*
X59611Y278686D01*
X59629Y278722D01*
X59654Y278754D01*
X59702Y278863D01*
X59756Y278969D01*
X59764Y279008D01*
X59781Y279046D01*
X59799Y279163D01*
X59825Y279279D01*
X59824Y279320D01*
X59830Y279360D01*
X59819Y279478D01*
X59816Y279597D01*
X59804Y279636D01*
X59801Y279676D01*
X59760Y279788D01*
X59727Y279903D01*
X59707Y279938D01*
X59693Y279976D01*
X59626Y280074D01*
X59566Y280177D01*
X59526Y280222D01*
X59514Y280239D01*
X59499Y280252D01*
X59459Y280298D01*
X58570Y281186D01*
X57685Y283323D01*
X57685Y285637D01*
X58570Y287774D01*
X60206Y289410D01*
X62343Y290295D01*
X64657Y290295D01*
X66794Y289410D01*
X68430Y287774D01*
X69315Y285637D01*
X69315Y283323D01*
X68430Y281186D01*
X67541Y280298D01*
X67468Y280204D01*
X67389Y280114D01*
X67371Y280078D01*
X67346Y280046D01*
X67299Y279937D01*
X67244Y279831D01*
X67236Y279792D01*
X67219Y279754D01*
X67201Y279637D01*
X67175Y279521D01*
X67176Y279480D01*
X67170Y279440D01*
X67181Y279322D01*
X67184Y279203D01*
X67196Y279164D01*
X67199Y279124D01*
X67240Y279011D01*
X67273Y278897D01*
X67293Y278863D01*
X67307Y278824D01*
X67374Y278726D01*
X67434Y278623D01*
X67474Y278578D01*
X67486Y278561D01*
X67501Y278548D01*
X67541Y278503D01*
X68430Y277614D01*
X69315Y275477D01*
X69315Y273163D01*
X68430Y271026D01*
X67541Y270138D01*
X67468Y270044D01*
X67389Y269954D01*
X67371Y269918D01*
X67346Y269886D01*
X67299Y269777D01*
X67244Y269671D01*
X67236Y269632D01*
X67219Y269594D01*
X67201Y269477D01*
X67175Y269361D01*
X67176Y269320D01*
X67170Y269280D01*
X67181Y269162D01*
X67184Y269043D01*
X67196Y269004D01*
X67199Y268964D01*
X67240Y268851D01*
X67273Y268737D01*
X67293Y268703D01*
X67307Y268664D01*
X67374Y268566D01*
X67434Y268463D01*
X67474Y268418D01*
X67486Y268401D01*
X67501Y268388D01*
X67541Y268343D01*
X68430Y267454D01*
X69315Y265317D01*
X69315Y263003D01*
X68430Y260866D01*
X66794Y259230D01*
X64657Y258345D01*
X62343Y258345D01*
G37*
%LPD*%
%LPC*%
G36*
X113143Y258345D02*
X113143Y258345D01*
X111006Y259230D01*
X109370Y260866D01*
X108485Y263003D01*
X108485Y265317D01*
X109370Y267454D01*
X110259Y268343D01*
X110332Y268437D01*
X110411Y268526D01*
X110429Y268562D01*
X110454Y268594D01*
X110502Y268703D01*
X110556Y268809D01*
X110564Y268848D01*
X110581Y268886D01*
X110599Y269003D01*
X110625Y269119D01*
X110624Y269160D01*
X110630Y269200D01*
X110619Y269318D01*
X110616Y269437D01*
X110604Y269476D01*
X110601Y269516D01*
X110560Y269628D01*
X110527Y269743D01*
X110507Y269778D01*
X110493Y269816D01*
X110426Y269914D01*
X110366Y270017D01*
X110326Y270062D01*
X110314Y270079D01*
X110299Y270092D01*
X110259Y270138D01*
X109370Y271026D01*
X108485Y273163D01*
X108485Y275477D01*
X109370Y277614D01*
X110259Y278503D01*
X110332Y278597D01*
X110411Y278686D01*
X110429Y278722D01*
X110454Y278754D01*
X110502Y278863D01*
X110556Y278969D01*
X110564Y279008D01*
X110581Y279046D01*
X110599Y279163D01*
X110625Y279279D01*
X110624Y279320D01*
X110630Y279360D01*
X110619Y279478D01*
X110616Y279597D01*
X110604Y279636D01*
X110601Y279676D01*
X110560Y279788D01*
X110527Y279903D01*
X110507Y279938D01*
X110493Y279976D01*
X110426Y280074D01*
X110366Y280177D01*
X110326Y280222D01*
X110314Y280239D01*
X110299Y280252D01*
X110259Y280298D01*
X109370Y281186D01*
X108485Y283323D01*
X108485Y285637D01*
X109370Y287774D01*
X111006Y289410D01*
X113143Y290295D01*
X115457Y290295D01*
X117594Y289410D01*
X119230Y287774D01*
X120115Y285637D01*
X120115Y283323D01*
X119230Y281186D01*
X118341Y280298D01*
X118268Y280204D01*
X118189Y280114D01*
X118171Y280078D01*
X118146Y280046D01*
X118099Y279937D01*
X118044Y279831D01*
X118036Y279792D01*
X118019Y279754D01*
X118001Y279637D01*
X117975Y279521D01*
X117976Y279480D01*
X117970Y279440D01*
X117981Y279322D01*
X117984Y279203D01*
X117996Y279164D01*
X117999Y279124D01*
X118040Y279011D01*
X118073Y278897D01*
X118093Y278863D01*
X118107Y278824D01*
X118174Y278726D01*
X118234Y278623D01*
X118274Y278578D01*
X118286Y278561D01*
X118301Y278548D01*
X118341Y278503D01*
X119230Y277614D01*
X120115Y275477D01*
X120115Y273163D01*
X119230Y271026D01*
X118341Y270138D01*
X118268Y270044D01*
X118189Y269954D01*
X118171Y269918D01*
X118146Y269886D01*
X118099Y269777D01*
X118044Y269671D01*
X118036Y269632D01*
X118019Y269594D01*
X118001Y269477D01*
X117975Y269361D01*
X117976Y269320D01*
X117970Y269280D01*
X117981Y269162D01*
X117984Y269043D01*
X117996Y269004D01*
X117999Y268964D01*
X118040Y268851D01*
X118073Y268737D01*
X118093Y268703D01*
X118107Y268664D01*
X118174Y268566D01*
X118234Y268463D01*
X118274Y268418D01*
X118286Y268401D01*
X118301Y268388D01*
X118341Y268343D01*
X119230Y267454D01*
X120115Y265317D01*
X120115Y263003D01*
X119230Y260866D01*
X117594Y259230D01*
X115457Y258345D01*
X113143Y258345D01*
G37*
%LPD*%
%LPC*%
G36*
X64883Y217705D02*
X64883Y217705D01*
X62746Y218590D01*
X61110Y220226D01*
X60225Y222363D01*
X60225Y224677D01*
X61110Y226814D01*
X61999Y227703D01*
X62072Y227797D01*
X62151Y227886D01*
X62169Y227922D01*
X62194Y227954D01*
X62242Y228063D01*
X62296Y228169D01*
X62304Y228208D01*
X62321Y228246D01*
X62339Y228363D01*
X62365Y228479D01*
X62364Y228520D01*
X62370Y228560D01*
X62359Y228678D01*
X62356Y228797D01*
X62344Y228836D01*
X62341Y228876D01*
X62300Y228988D01*
X62267Y229103D01*
X62247Y229138D01*
X62233Y229176D01*
X62166Y229274D01*
X62106Y229377D01*
X62066Y229422D01*
X62054Y229439D01*
X62039Y229452D01*
X61999Y229498D01*
X61110Y230386D01*
X60225Y232523D01*
X60225Y234837D01*
X61110Y236974D01*
X61999Y237863D01*
X62072Y237957D01*
X62151Y238046D01*
X62169Y238082D01*
X62194Y238114D01*
X62242Y238223D01*
X62296Y238329D01*
X62304Y238368D01*
X62321Y238406D01*
X62339Y238523D01*
X62365Y238639D01*
X62364Y238680D01*
X62370Y238720D01*
X62359Y238838D01*
X62356Y238957D01*
X62344Y238996D01*
X62341Y239036D01*
X62300Y239148D01*
X62267Y239263D01*
X62247Y239298D01*
X62233Y239336D01*
X62166Y239434D01*
X62106Y239537D01*
X62066Y239582D01*
X62054Y239599D01*
X62039Y239612D01*
X61999Y239658D01*
X61110Y240546D01*
X60225Y242683D01*
X60225Y244997D01*
X61110Y247134D01*
X62746Y248770D01*
X64883Y249655D01*
X67197Y249655D01*
X69334Y248770D01*
X70970Y247134D01*
X71855Y244997D01*
X71855Y242683D01*
X70970Y240546D01*
X70081Y239658D01*
X70008Y239564D01*
X69929Y239474D01*
X69911Y239438D01*
X69886Y239406D01*
X69839Y239297D01*
X69784Y239191D01*
X69776Y239152D01*
X69759Y239114D01*
X69741Y238997D01*
X69715Y238881D01*
X69716Y238840D01*
X69710Y238800D01*
X69721Y238682D01*
X69724Y238563D01*
X69736Y238524D01*
X69739Y238484D01*
X69780Y238371D01*
X69813Y238257D01*
X69833Y238223D01*
X69847Y238184D01*
X69914Y238086D01*
X69974Y237983D01*
X70014Y237938D01*
X70026Y237921D01*
X70041Y237908D01*
X70081Y237863D01*
X70970Y236974D01*
X71855Y234837D01*
X71855Y232523D01*
X70970Y230386D01*
X70081Y229498D01*
X70008Y229404D01*
X69929Y229314D01*
X69911Y229278D01*
X69886Y229246D01*
X69839Y229137D01*
X69784Y229031D01*
X69776Y228992D01*
X69759Y228954D01*
X69741Y228837D01*
X69715Y228721D01*
X69716Y228680D01*
X69710Y228640D01*
X69721Y228522D01*
X69724Y228403D01*
X69736Y228364D01*
X69739Y228324D01*
X69780Y228211D01*
X69813Y228097D01*
X69833Y228063D01*
X69847Y228024D01*
X69914Y227926D01*
X69974Y227823D01*
X70014Y227778D01*
X70026Y227761D01*
X70041Y227748D01*
X70081Y227703D01*
X70970Y226814D01*
X71855Y224677D01*
X71855Y222363D01*
X70970Y220226D01*
X69334Y218590D01*
X67197Y217705D01*
X64883Y217705D01*
G37*
%LPD*%
%LPC*%
G36*
X113143Y217705D02*
X113143Y217705D01*
X111006Y218590D01*
X109370Y220226D01*
X108485Y222363D01*
X108485Y224677D01*
X109370Y226814D01*
X110259Y227702D01*
X110332Y227796D01*
X110411Y227886D01*
X110429Y227922D01*
X110454Y227954D01*
X110501Y228063D01*
X110556Y228169D01*
X110564Y228208D01*
X110581Y228246D01*
X110599Y228363D01*
X110625Y228479D01*
X110624Y228520D01*
X110630Y228560D01*
X110619Y228678D01*
X110616Y228797D01*
X110604Y228836D01*
X110601Y228876D01*
X110560Y228989D01*
X110527Y229103D01*
X110507Y229137D01*
X110493Y229176D01*
X110426Y229274D01*
X110366Y229377D01*
X110326Y229422D01*
X110314Y229439D01*
X110299Y229452D01*
X110259Y229497D01*
X109370Y230386D01*
X108485Y232523D01*
X108485Y234837D01*
X109370Y236974D01*
X110259Y237862D01*
X110332Y237956D01*
X110411Y238046D01*
X110429Y238082D01*
X110454Y238114D01*
X110501Y238223D01*
X110556Y238329D01*
X110564Y238368D01*
X110581Y238406D01*
X110599Y238523D01*
X110625Y238639D01*
X110624Y238680D01*
X110630Y238720D01*
X110619Y238838D01*
X110616Y238957D01*
X110604Y238996D01*
X110601Y239036D01*
X110560Y239149D01*
X110527Y239263D01*
X110507Y239297D01*
X110493Y239336D01*
X110426Y239434D01*
X110366Y239537D01*
X110326Y239582D01*
X110314Y239599D01*
X110299Y239612D01*
X110259Y239657D01*
X109370Y240546D01*
X108485Y242683D01*
X108485Y244997D01*
X109370Y247134D01*
X111006Y248770D01*
X113143Y249655D01*
X115457Y249655D01*
X117594Y248770D01*
X119230Y247134D01*
X120115Y244997D01*
X120115Y242683D01*
X119230Y240546D01*
X118341Y239657D01*
X118268Y239563D01*
X118189Y239474D01*
X118171Y239438D01*
X118146Y239406D01*
X118098Y239297D01*
X118044Y239191D01*
X118036Y239152D01*
X118019Y239114D01*
X118001Y238997D01*
X117975Y238881D01*
X117976Y238840D01*
X117970Y238800D01*
X117981Y238682D01*
X117984Y238563D01*
X117996Y238524D01*
X117999Y238484D01*
X118040Y238372D01*
X118073Y238257D01*
X118093Y238222D01*
X118107Y238184D01*
X118174Y238086D01*
X118234Y237983D01*
X118274Y237938D01*
X118286Y237921D01*
X118301Y237908D01*
X118341Y237862D01*
X119230Y236974D01*
X120115Y234837D01*
X120115Y232523D01*
X119230Y230386D01*
X118341Y229497D01*
X118268Y229403D01*
X118189Y229314D01*
X118171Y229278D01*
X118146Y229246D01*
X118098Y229137D01*
X118044Y229031D01*
X118036Y228992D01*
X118019Y228954D01*
X118001Y228837D01*
X117975Y228721D01*
X117976Y228680D01*
X117970Y228640D01*
X117981Y228522D01*
X117984Y228403D01*
X117996Y228364D01*
X117999Y228324D01*
X118040Y228212D01*
X118073Y228097D01*
X118093Y228062D01*
X118107Y228024D01*
X118174Y227926D01*
X118234Y227823D01*
X118274Y227778D01*
X118286Y227761D01*
X118301Y227748D01*
X118341Y227702D01*
X119230Y226814D01*
X120115Y224677D01*
X120115Y222363D01*
X119230Y220226D01*
X117594Y218590D01*
X115457Y217705D01*
X113143Y217705D01*
G37*
%LPD*%
%LPC*%
G36*
X971405Y526287D02*
X971405Y526287D01*
X968791Y527370D01*
X966790Y529371D01*
X965707Y531985D01*
X965707Y534815D01*
X966784Y537413D01*
X966791Y537442D01*
X966805Y537468D01*
X966833Y537595D01*
X966868Y537720D01*
X966868Y537750D01*
X966875Y537778D01*
X966871Y537908D01*
X966873Y538038D01*
X966866Y538067D01*
X966865Y538096D01*
X966829Y538221D01*
X966798Y538347D01*
X966785Y538373D01*
X966776Y538402D01*
X966710Y538514D01*
X966650Y538628D01*
X966630Y538650D01*
X966615Y538676D01*
X966508Y538797D01*
X965774Y539531D01*
X964691Y542145D01*
X964691Y544975D01*
X965774Y547589D01*
X967775Y549590D01*
X970389Y550673D01*
X973219Y550673D01*
X975833Y549590D01*
X977834Y547589D01*
X978917Y544975D01*
X978917Y542145D01*
X977840Y539547D01*
X977833Y539518D01*
X977819Y539492D01*
X977791Y539365D01*
X977756Y539240D01*
X977756Y539210D01*
X977749Y539182D01*
X977753Y539052D01*
X977751Y538922D01*
X977758Y538893D01*
X977759Y538864D01*
X977795Y538739D01*
X977826Y538613D01*
X977839Y538587D01*
X977848Y538558D01*
X977914Y538446D01*
X977974Y538332D01*
X977994Y538310D01*
X978009Y538284D01*
X978116Y538163D01*
X978850Y537429D01*
X979933Y534815D01*
X979933Y531985D01*
X978850Y529371D01*
X976849Y527370D01*
X974235Y526287D01*
X971405Y526287D01*
G37*
%LPD*%
%LPC*%
G36*
X1090702Y79359D02*
X1090702Y79359D01*
X1087196Y80812D01*
X1084512Y83496D01*
X1083059Y87002D01*
X1083059Y90798D01*
X1084512Y94304D01*
X1087196Y96988D01*
X1090702Y98441D01*
X1094498Y98441D01*
X1098004Y96988D01*
X1100688Y94304D01*
X1102141Y90798D01*
X1102141Y87002D01*
X1100688Y83496D01*
X1098004Y80812D01*
X1094498Y79359D01*
X1090702Y79359D01*
G37*
%LPD*%
%LPC*%
G36*
X556902Y66659D02*
X556902Y66659D01*
X553396Y68112D01*
X550712Y70796D01*
X549259Y74302D01*
X549259Y78098D01*
X550712Y81604D01*
X553396Y84288D01*
X556902Y85741D01*
X560698Y85741D01*
X564204Y84288D01*
X566888Y81604D01*
X568341Y78098D01*
X568341Y74302D01*
X566888Y70796D01*
X564204Y68112D01*
X560698Y66659D01*
X556902Y66659D01*
G37*
%LPD*%
%LPC*%
G36*
X531902Y66659D02*
X531902Y66659D01*
X528396Y68112D01*
X525712Y70796D01*
X524259Y74302D01*
X524259Y78098D01*
X525712Y81604D01*
X528396Y84288D01*
X531902Y85741D01*
X535698Y85741D01*
X539204Y84288D01*
X541888Y81604D01*
X543341Y78098D01*
X543341Y74302D01*
X541888Y70796D01*
X539204Y68112D01*
X535698Y66659D01*
X531902Y66659D01*
G37*
%LPD*%
%LPC*%
G36*
X1115702Y79359D02*
X1115702Y79359D01*
X1112196Y80812D01*
X1109512Y83496D01*
X1108059Y87002D01*
X1108059Y90798D01*
X1109512Y94304D01*
X1112196Y96988D01*
X1115702Y98441D01*
X1119498Y98441D01*
X1123004Y96988D01*
X1125688Y94304D01*
X1127141Y90798D01*
X1127141Y87002D01*
X1125688Y83496D01*
X1123004Y80812D01*
X1119498Y79359D01*
X1115702Y79359D01*
G37*
%LPD*%
%LPC*%
G36*
X1140702Y79359D02*
X1140702Y79359D01*
X1137196Y80812D01*
X1134512Y83496D01*
X1133059Y87002D01*
X1133059Y90798D01*
X1134512Y94304D01*
X1137196Y96988D01*
X1140702Y98441D01*
X1144498Y98441D01*
X1148004Y96988D01*
X1150688Y94304D01*
X1152141Y90798D01*
X1152141Y87002D01*
X1150688Y83496D01*
X1148004Y80812D01*
X1144498Y79359D01*
X1140702Y79359D01*
G37*
%LPD*%
%LPC*%
G36*
X201414Y194219D02*
X201414Y194219D01*
X198113Y195586D01*
X195586Y198113D01*
X194219Y201414D01*
X194219Y204986D01*
X195586Y208287D01*
X198113Y210814D01*
X201414Y212181D01*
X204986Y212181D01*
X208287Y210814D01*
X210814Y208287D01*
X212181Y204986D01*
X212181Y201414D01*
X210814Y198113D01*
X208287Y195586D01*
X204986Y194219D01*
X201414Y194219D01*
G37*
%LPD*%
%LPC*%
G36*
X271414Y194219D02*
X271414Y194219D01*
X268113Y195586D01*
X265586Y198113D01*
X264219Y201414D01*
X264219Y204986D01*
X265586Y208287D01*
X268113Y210814D01*
X271414Y212181D01*
X274986Y212181D01*
X278287Y210814D01*
X280814Y208287D01*
X282181Y204986D01*
X282181Y201414D01*
X280814Y198113D01*
X278287Y195586D01*
X274986Y194219D01*
X271414Y194219D01*
G37*
%LPD*%
%LPC*%
G36*
X273257Y661536D02*
X273257Y661536D01*
X270036Y662870D01*
X267570Y665336D01*
X266236Y668557D01*
X266236Y672043D01*
X267570Y675264D01*
X270036Y677730D01*
X273257Y679064D01*
X276743Y679064D01*
X279964Y677730D01*
X282430Y675264D01*
X283764Y672043D01*
X283764Y668557D01*
X282430Y665336D01*
X279964Y662870D01*
X276743Y661536D01*
X273257Y661536D01*
G37*
%LPD*%
%LPC*%
G36*
X247857Y661536D02*
X247857Y661536D01*
X244636Y662870D01*
X242170Y665336D01*
X240836Y668557D01*
X240836Y672043D01*
X242170Y675264D01*
X244636Y677730D01*
X247857Y679064D01*
X251343Y679064D01*
X254564Y677730D01*
X257030Y675264D01*
X258364Y672043D01*
X258364Y668557D01*
X257030Y665336D01*
X254564Y662870D01*
X251343Y661536D01*
X247857Y661536D01*
G37*
%LPD*%
%LPC*%
G36*
X222457Y661536D02*
X222457Y661536D01*
X219236Y662870D01*
X216770Y665336D01*
X215436Y668557D01*
X215436Y672043D01*
X216770Y675264D01*
X219236Y677730D01*
X222457Y679064D01*
X225943Y679064D01*
X229164Y677730D01*
X231630Y675264D01*
X232964Y672043D01*
X232964Y668557D01*
X231630Y665336D01*
X229164Y662870D01*
X225943Y661536D01*
X222457Y661536D01*
G37*
%LPD*%
%LPC*%
G36*
X197057Y661536D02*
X197057Y661536D01*
X193836Y662870D01*
X191370Y665336D01*
X190036Y668557D01*
X190036Y672043D01*
X191370Y675264D01*
X193836Y677730D01*
X197057Y679064D01*
X200543Y679064D01*
X203764Y677730D01*
X206230Y675264D01*
X207564Y672043D01*
X207564Y668557D01*
X206230Y665336D01*
X203764Y662870D01*
X200543Y661536D01*
X197057Y661536D01*
G37*
%LPD*%
%LPC*%
G36*
X171657Y661536D02*
X171657Y661536D01*
X168436Y662870D01*
X165970Y665336D01*
X164636Y668557D01*
X164636Y672043D01*
X165970Y675264D01*
X168436Y677730D01*
X171657Y679064D01*
X175143Y679064D01*
X178364Y677730D01*
X180830Y675264D01*
X182164Y672043D01*
X182164Y668557D01*
X180830Y665336D01*
X178364Y662870D01*
X175143Y661536D01*
X171657Y661536D01*
G37*
%LPD*%
%LPC*%
G36*
X552657Y636136D02*
X552657Y636136D01*
X549436Y637470D01*
X546970Y639936D01*
X545636Y643157D01*
X545636Y646643D01*
X546970Y649864D01*
X549436Y652330D01*
X552657Y653664D01*
X556143Y653664D01*
X559364Y652330D01*
X561830Y649864D01*
X563164Y646643D01*
X563164Y643157D01*
X561830Y639936D01*
X559364Y637470D01*
X556143Y636136D01*
X552657Y636136D01*
G37*
%LPD*%
%LPC*%
G36*
X527257Y636136D02*
X527257Y636136D01*
X524036Y637470D01*
X521570Y639936D01*
X520236Y643157D01*
X520236Y646643D01*
X521570Y649864D01*
X524036Y652330D01*
X527257Y653664D01*
X530743Y653664D01*
X533964Y652330D01*
X536430Y649864D01*
X537764Y646643D01*
X537764Y643157D01*
X536430Y639936D01*
X533964Y637470D01*
X530743Y636136D01*
X527257Y636136D01*
G37*
%LPD*%
%LPC*%
G36*
X501857Y636136D02*
X501857Y636136D01*
X498636Y637470D01*
X496170Y639936D01*
X494836Y643157D01*
X494836Y646643D01*
X496170Y649864D01*
X498636Y652330D01*
X501857Y653664D01*
X505343Y653664D01*
X508564Y652330D01*
X511030Y649864D01*
X512364Y646643D01*
X512364Y643157D01*
X511030Y639936D01*
X508564Y637470D01*
X505343Y636136D01*
X501857Y636136D01*
G37*
%LPD*%
%LPC*%
G36*
X476457Y636136D02*
X476457Y636136D01*
X473236Y637470D01*
X470770Y639936D01*
X469436Y643157D01*
X469436Y646643D01*
X470770Y649864D01*
X473236Y652330D01*
X476457Y653664D01*
X479943Y653664D01*
X483164Y652330D01*
X485630Y649864D01*
X486964Y646643D01*
X486964Y643157D01*
X485630Y639936D01*
X483164Y637470D01*
X479943Y636136D01*
X476457Y636136D01*
G37*
%LPD*%
%LPC*%
G36*
X451057Y636136D02*
X451057Y636136D01*
X447836Y637470D01*
X445370Y639936D01*
X444036Y643157D01*
X444036Y646643D01*
X445370Y649864D01*
X447836Y652330D01*
X451057Y653664D01*
X454543Y653664D01*
X457764Y652330D01*
X460230Y649864D01*
X461564Y646643D01*
X461564Y643157D01*
X460230Y639936D01*
X457764Y637470D01*
X454543Y636136D01*
X451057Y636136D01*
G37*
%LPD*%
%LPC*%
G36*
X425657Y636136D02*
X425657Y636136D01*
X422436Y637470D01*
X419970Y639936D01*
X418636Y643157D01*
X418636Y646643D01*
X419970Y649864D01*
X422436Y652330D01*
X425657Y653664D01*
X429143Y653664D01*
X432364Y652330D01*
X434830Y649864D01*
X436164Y646643D01*
X436164Y643157D01*
X434830Y639936D01*
X432364Y637470D01*
X429143Y636136D01*
X425657Y636136D01*
G37*
%LPD*%
%LPC*%
G36*
X374857Y636136D02*
X374857Y636136D01*
X371636Y637470D01*
X369170Y639936D01*
X367836Y643157D01*
X367836Y646643D01*
X369170Y649864D01*
X371636Y652330D01*
X374857Y653664D01*
X378343Y653664D01*
X381564Y652330D01*
X384030Y649864D01*
X385364Y646643D01*
X385364Y643157D01*
X384030Y639936D01*
X381564Y637470D01*
X378343Y636136D01*
X374857Y636136D01*
G37*
%LPD*%
%LPC*%
G36*
X349457Y636136D02*
X349457Y636136D01*
X346236Y637470D01*
X343770Y639936D01*
X342436Y643157D01*
X342436Y646643D01*
X343770Y649864D01*
X346236Y652330D01*
X349457Y653664D01*
X352943Y653664D01*
X356164Y652330D01*
X358630Y649864D01*
X359964Y646643D01*
X359964Y643157D01*
X358630Y639936D01*
X356164Y637470D01*
X352943Y636136D01*
X349457Y636136D01*
G37*
%LPD*%
%LPC*%
G36*
X324057Y636136D02*
X324057Y636136D01*
X320836Y637470D01*
X318370Y639936D01*
X317036Y643157D01*
X317036Y646643D01*
X318370Y649864D01*
X320836Y652330D01*
X324057Y653664D01*
X327543Y653664D01*
X330764Y652330D01*
X333230Y649864D01*
X334564Y646643D01*
X334564Y643157D01*
X333230Y639936D01*
X330764Y637470D01*
X327543Y636136D01*
X324057Y636136D01*
G37*
%LPD*%
%LPC*%
G36*
X298657Y636136D02*
X298657Y636136D01*
X295436Y637470D01*
X292970Y639936D01*
X291636Y643157D01*
X291636Y646643D01*
X292970Y649864D01*
X295436Y652330D01*
X298657Y653664D01*
X302143Y653664D01*
X305364Y652330D01*
X307830Y649864D01*
X309164Y646643D01*
X309164Y643157D01*
X307830Y639936D01*
X305364Y637470D01*
X302143Y636136D01*
X298657Y636136D01*
G37*
%LPD*%
%LPC*%
G36*
X273257Y636136D02*
X273257Y636136D01*
X270036Y637470D01*
X267570Y639936D01*
X266236Y643157D01*
X266236Y646643D01*
X267570Y649864D01*
X270036Y652330D01*
X273257Y653664D01*
X276743Y653664D01*
X279964Y652330D01*
X282430Y649864D01*
X283764Y646643D01*
X283764Y643157D01*
X282430Y639936D01*
X279964Y637470D01*
X276743Y636136D01*
X273257Y636136D01*
G37*
%LPD*%
%LPC*%
G36*
X247857Y636136D02*
X247857Y636136D01*
X244636Y637470D01*
X242170Y639936D01*
X240836Y643157D01*
X240836Y646643D01*
X242170Y649864D01*
X244636Y652330D01*
X247857Y653664D01*
X251343Y653664D01*
X254564Y652330D01*
X257030Y649864D01*
X258364Y646643D01*
X258364Y643157D01*
X257030Y639936D01*
X254564Y637470D01*
X251343Y636136D01*
X247857Y636136D01*
G37*
%LPD*%
%LPC*%
G36*
X222457Y636136D02*
X222457Y636136D01*
X219236Y637470D01*
X216770Y639936D01*
X215436Y643157D01*
X215436Y646643D01*
X216770Y649864D01*
X219236Y652330D01*
X222457Y653664D01*
X225943Y653664D01*
X229164Y652330D01*
X231630Y649864D01*
X232964Y646643D01*
X232964Y643157D01*
X231630Y639936D01*
X229164Y637470D01*
X225943Y636136D01*
X222457Y636136D01*
G37*
%LPD*%
%LPC*%
G36*
X197057Y636136D02*
X197057Y636136D01*
X193836Y637470D01*
X191370Y639936D01*
X190036Y643157D01*
X190036Y646643D01*
X191370Y649864D01*
X193836Y652330D01*
X197057Y653664D01*
X200543Y653664D01*
X203764Y652330D01*
X206230Y649864D01*
X207564Y646643D01*
X207564Y643157D01*
X206230Y639936D01*
X203764Y637470D01*
X200543Y636136D01*
X197057Y636136D01*
G37*
%LPD*%
%LPC*%
G36*
X171657Y636136D02*
X171657Y636136D01*
X168436Y637470D01*
X165970Y639936D01*
X164636Y643157D01*
X164636Y646643D01*
X165970Y649864D01*
X168436Y652330D01*
X171657Y653664D01*
X175143Y653664D01*
X178364Y652330D01*
X180830Y649864D01*
X182164Y646643D01*
X182164Y643157D01*
X180830Y639936D01*
X178364Y637470D01*
X175143Y636136D01*
X171657Y636136D01*
G37*
%LPD*%
%LPC*%
G36*
X146257Y636136D02*
X146257Y636136D01*
X143036Y637470D01*
X140570Y639936D01*
X139236Y643157D01*
X139236Y646643D01*
X140570Y649864D01*
X143036Y652330D01*
X146257Y653664D01*
X149743Y653664D01*
X152964Y652330D01*
X155430Y649864D01*
X156764Y646643D01*
X156764Y643157D01*
X155430Y639936D01*
X152964Y637470D01*
X149743Y636136D01*
X146257Y636136D01*
G37*
%LPD*%
%LPC*%
G36*
X120857Y636136D02*
X120857Y636136D01*
X117636Y637470D01*
X115170Y639936D01*
X113836Y643157D01*
X113836Y646643D01*
X115170Y649864D01*
X117636Y652330D01*
X120857Y653664D01*
X124343Y653664D01*
X127564Y652330D01*
X130030Y649864D01*
X131364Y646643D01*
X131364Y643157D01*
X130030Y639936D01*
X127564Y637470D01*
X124343Y636136D01*
X120857Y636136D01*
G37*
%LPD*%
%LPC*%
G36*
X501857Y407536D02*
X501857Y407536D01*
X498636Y408870D01*
X496170Y411336D01*
X494836Y414557D01*
X494836Y418043D01*
X496170Y421264D01*
X498636Y423730D01*
X501857Y425064D01*
X505343Y425064D01*
X508564Y423730D01*
X511030Y421264D01*
X512364Y418043D01*
X512364Y414557D01*
X511030Y411336D01*
X508564Y408870D01*
X505343Y407536D01*
X501857Y407536D01*
G37*
%LPD*%
%LPC*%
G36*
X374857Y661536D02*
X374857Y661536D01*
X371636Y662870D01*
X369170Y665336D01*
X367836Y668557D01*
X367836Y672043D01*
X369170Y675264D01*
X371636Y677730D01*
X374857Y679064D01*
X378343Y679064D01*
X381564Y677730D01*
X384030Y675264D01*
X385364Y672043D01*
X385364Y668557D01*
X384030Y665336D01*
X381564Y662870D01*
X378343Y661536D01*
X374857Y661536D01*
G37*
%LPD*%
%LPC*%
G36*
X349457Y661536D02*
X349457Y661536D01*
X346236Y662870D01*
X343770Y665336D01*
X342436Y668557D01*
X342436Y672043D01*
X343770Y675264D01*
X346236Y677730D01*
X349457Y679064D01*
X352943Y679064D01*
X356164Y677730D01*
X358630Y675264D01*
X359964Y672043D01*
X359964Y668557D01*
X358630Y665336D01*
X356164Y662870D01*
X352943Y661536D01*
X349457Y661536D01*
G37*
%LPD*%
%LPC*%
G36*
X552657Y661536D02*
X552657Y661536D01*
X549436Y662870D01*
X546970Y665336D01*
X545636Y668557D01*
X545636Y672043D01*
X546970Y675264D01*
X549436Y677730D01*
X552657Y679064D01*
X556143Y679064D01*
X559364Y677730D01*
X561830Y675264D01*
X563164Y672043D01*
X563164Y668557D01*
X561830Y665336D01*
X559364Y662870D01*
X556143Y661536D01*
X552657Y661536D01*
G37*
%LPD*%
%LPC*%
G36*
X298657Y661536D02*
X298657Y661536D01*
X295436Y662870D01*
X292970Y665336D01*
X291636Y668557D01*
X291636Y672043D01*
X292970Y675264D01*
X295436Y677730D01*
X298657Y679064D01*
X302143Y679064D01*
X305364Y677730D01*
X307830Y675264D01*
X309164Y672043D01*
X309164Y668557D01*
X307830Y665336D01*
X305364Y662870D01*
X302143Y661536D01*
X298657Y661536D01*
G37*
%LPD*%
%LPC*%
G36*
X451057Y407536D02*
X451057Y407536D01*
X447836Y408870D01*
X445370Y411336D01*
X444036Y414557D01*
X444036Y418043D01*
X445370Y421264D01*
X447836Y423730D01*
X451057Y425064D01*
X454543Y425064D01*
X457764Y423730D01*
X460230Y421264D01*
X461564Y418043D01*
X461564Y414557D01*
X460230Y411336D01*
X457764Y408870D01*
X454543Y407536D01*
X451057Y407536D01*
G37*
%LPD*%
%LPC*%
G36*
X425657Y407536D02*
X425657Y407536D01*
X422436Y408870D01*
X419970Y411336D01*
X418636Y414557D01*
X418636Y418043D01*
X419970Y421264D01*
X422436Y423730D01*
X425657Y425064D01*
X429143Y425064D01*
X432364Y423730D01*
X434830Y421264D01*
X436164Y418043D01*
X436164Y414557D01*
X434830Y411336D01*
X432364Y408870D01*
X429143Y407536D01*
X425657Y407536D01*
G37*
%LPD*%
%LPC*%
G36*
X552657Y407536D02*
X552657Y407536D01*
X549436Y408870D01*
X546970Y411336D01*
X545636Y414557D01*
X545636Y418043D01*
X546970Y421264D01*
X549436Y423730D01*
X552657Y425064D01*
X556143Y425064D01*
X559364Y423730D01*
X561830Y421264D01*
X563164Y418043D01*
X563164Y414557D01*
X561830Y411336D01*
X559364Y408870D01*
X556143Y407536D01*
X552657Y407536D01*
G37*
%LPD*%
%LPC*%
G36*
X527257Y407536D02*
X527257Y407536D01*
X524036Y408870D01*
X521570Y411336D01*
X520236Y414557D01*
X520236Y418043D01*
X521570Y421264D01*
X524036Y423730D01*
X527257Y425064D01*
X530743Y425064D01*
X533964Y423730D01*
X536430Y421264D01*
X537764Y418043D01*
X537764Y414557D01*
X536430Y411336D01*
X533964Y408870D01*
X530743Y407536D01*
X527257Y407536D01*
G37*
%LPD*%
%LPC*%
G36*
X324057Y661536D02*
X324057Y661536D01*
X320836Y662870D01*
X318370Y665336D01*
X317036Y668557D01*
X317036Y672043D01*
X318370Y675264D01*
X320836Y677730D01*
X324057Y679064D01*
X327543Y679064D01*
X330764Y677730D01*
X333230Y675264D01*
X334564Y672043D01*
X334564Y668557D01*
X333230Y665336D01*
X330764Y662870D01*
X327543Y661536D01*
X324057Y661536D01*
G37*
%LPD*%
%LPC*%
G36*
X476457Y407536D02*
X476457Y407536D01*
X473236Y408870D01*
X470770Y411336D01*
X469436Y414557D01*
X469436Y418043D01*
X470770Y421264D01*
X473236Y423730D01*
X476457Y425064D01*
X479943Y425064D01*
X483164Y423730D01*
X485630Y421264D01*
X486964Y418043D01*
X486964Y414557D01*
X485630Y411336D01*
X483164Y408870D01*
X479943Y407536D01*
X476457Y407536D01*
G37*
%LPD*%
%LPC*%
G36*
X400257Y407536D02*
X400257Y407536D01*
X397036Y408870D01*
X394570Y411336D01*
X393236Y414557D01*
X393236Y418043D01*
X394570Y421264D01*
X397036Y423730D01*
X400257Y425064D01*
X403743Y425064D01*
X406964Y423730D01*
X409430Y421264D01*
X410764Y418043D01*
X410764Y414557D01*
X409430Y411336D01*
X406964Y408870D01*
X403743Y407536D01*
X400257Y407536D01*
G37*
%LPD*%
%LPC*%
G36*
X374857Y407536D02*
X374857Y407536D01*
X371636Y408870D01*
X369170Y411336D01*
X367836Y414557D01*
X367836Y418043D01*
X369170Y421264D01*
X371636Y423730D01*
X374857Y425064D01*
X378343Y425064D01*
X381564Y423730D01*
X384030Y421264D01*
X385364Y418043D01*
X385364Y414557D01*
X384030Y411336D01*
X381564Y408870D01*
X378343Y407536D01*
X374857Y407536D01*
G37*
%LPD*%
%LPC*%
G36*
X349457Y407536D02*
X349457Y407536D01*
X346236Y408870D01*
X343770Y411336D01*
X342436Y414557D01*
X342436Y418043D01*
X343770Y421264D01*
X346236Y423730D01*
X349457Y425064D01*
X352943Y425064D01*
X356164Y423730D01*
X358630Y421264D01*
X359964Y418043D01*
X359964Y414557D01*
X358630Y411336D01*
X356164Y408870D01*
X352943Y407536D01*
X349457Y407536D01*
G37*
%LPD*%
%LPC*%
G36*
X324057Y407536D02*
X324057Y407536D01*
X320836Y408870D01*
X318370Y411336D01*
X317036Y414557D01*
X317036Y418043D01*
X318370Y421264D01*
X320836Y423730D01*
X324057Y425064D01*
X327543Y425064D01*
X330764Y423730D01*
X333230Y421264D01*
X334564Y418043D01*
X334564Y414557D01*
X333230Y411336D01*
X330764Y408870D01*
X327543Y407536D01*
X324057Y407536D01*
G37*
%LPD*%
%LPC*%
G36*
X298657Y407536D02*
X298657Y407536D01*
X295436Y408870D01*
X292970Y411336D01*
X291636Y414557D01*
X291636Y418043D01*
X292970Y421264D01*
X295436Y423730D01*
X298657Y425064D01*
X302143Y425064D01*
X305364Y423730D01*
X307830Y421264D01*
X309164Y418043D01*
X309164Y414557D01*
X307830Y411336D01*
X305364Y408870D01*
X302143Y407536D01*
X298657Y407536D01*
G37*
%LPD*%
%LPC*%
G36*
X247857Y407536D02*
X247857Y407536D01*
X244636Y408870D01*
X242170Y411336D01*
X240836Y414557D01*
X240836Y418043D01*
X242170Y421264D01*
X244636Y423730D01*
X247857Y425064D01*
X251343Y425064D01*
X254564Y423730D01*
X257030Y421264D01*
X258364Y418043D01*
X258364Y414557D01*
X257030Y411336D01*
X254564Y408870D01*
X251343Y407536D01*
X247857Y407536D01*
G37*
%LPD*%
%LPC*%
G36*
X222457Y407536D02*
X222457Y407536D01*
X219236Y408870D01*
X216770Y411336D01*
X215436Y414557D01*
X215436Y418043D01*
X216770Y421264D01*
X219236Y423730D01*
X222457Y425064D01*
X225943Y425064D01*
X229164Y423730D01*
X231630Y421264D01*
X232964Y418043D01*
X232964Y414557D01*
X231630Y411336D01*
X229164Y408870D01*
X225943Y407536D01*
X222457Y407536D01*
G37*
%LPD*%
%LPC*%
G36*
X197057Y407536D02*
X197057Y407536D01*
X193836Y408870D01*
X191370Y411336D01*
X190036Y414557D01*
X190036Y418043D01*
X191370Y421264D01*
X193836Y423730D01*
X197057Y425064D01*
X200543Y425064D01*
X203764Y423730D01*
X206230Y421264D01*
X207564Y418043D01*
X207564Y414557D01*
X206230Y411336D01*
X203764Y408870D01*
X200543Y407536D01*
X197057Y407536D01*
G37*
%LPD*%
%LPC*%
G36*
X171657Y407536D02*
X171657Y407536D01*
X168436Y408870D01*
X165970Y411336D01*
X164636Y414557D01*
X164636Y418043D01*
X165970Y421264D01*
X168436Y423730D01*
X171657Y425064D01*
X175143Y425064D01*
X178364Y423730D01*
X180830Y421264D01*
X182164Y418043D01*
X182164Y414557D01*
X180830Y411336D01*
X178364Y408870D01*
X175143Y407536D01*
X171657Y407536D01*
G37*
%LPD*%
%LPC*%
G36*
X146257Y407536D02*
X146257Y407536D01*
X143036Y408870D01*
X140570Y411336D01*
X139236Y414557D01*
X139236Y418043D01*
X140570Y421264D01*
X143036Y423730D01*
X146257Y425064D01*
X149743Y425064D01*
X152964Y423730D01*
X155430Y421264D01*
X156764Y418043D01*
X156764Y414557D01*
X155430Y411336D01*
X152964Y408870D01*
X149743Y407536D01*
X146257Y407536D01*
G37*
%LPD*%
%LPC*%
G36*
X120857Y407536D02*
X120857Y407536D01*
X117636Y408870D01*
X115170Y411336D01*
X113836Y414557D01*
X113836Y418043D01*
X115170Y421264D01*
X117636Y423730D01*
X120857Y425064D01*
X124343Y425064D01*
X127564Y423730D01*
X130030Y421264D01*
X131364Y418043D01*
X131364Y414557D01*
X130030Y411336D01*
X127564Y408870D01*
X124343Y407536D01*
X120857Y407536D01*
G37*
%LPD*%
%LPC*%
G36*
X527257Y661536D02*
X527257Y661536D01*
X524036Y662870D01*
X521570Y665336D01*
X520236Y668557D01*
X520236Y672043D01*
X521570Y675264D01*
X524036Y677730D01*
X527257Y679064D01*
X530743Y679064D01*
X533964Y677730D01*
X536430Y675264D01*
X537764Y672043D01*
X537764Y668557D01*
X536430Y665336D01*
X533964Y662870D01*
X530743Y661536D01*
X527257Y661536D01*
G37*
%LPD*%
%LPC*%
G36*
X501857Y661536D02*
X501857Y661536D01*
X498636Y662870D01*
X496170Y665336D01*
X494836Y668557D01*
X494836Y672043D01*
X496170Y675264D01*
X498636Y677730D01*
X501857Y679064D01*
X505343Y679064D01*
X508564Y677730D01*
X511030Y675264D01*
X512364Y672043D01*
X512364Y668557D01*
X511030Y665336D01*
X508564Y662870D01*
X505343Y661536D01*
X501857Y661536D01*
G37*
%LPD*%
%LPC*%
G36*
X476457Y661536D02*
X476457Y661536D01*
X473236Y662870D01*
X470770Y665336D01*
X469436Y668557D01*
X469436Y672043D01*
X470770Y675264D01*
X473236Y677730D01*
X476457Y679064D01*
X479943Y679064D01*
X483164Y677730D01*
X485630Y675264D01*
X486964Y672043D01*
X486964Y668557D01*
X485630Y665336D01*
X483164Y662870D01*
X479943Y661536D01*
X476457Y661536D01*
G37*
%LPD*%
%LPC*%
G36*
X451057Y661536D02*
X451057Y661536D01*
X447836Y662870D01*
X445370Y665336D01*
X444036Y668557D01*
X444036Y672043D01*
X445370Y675264D01*
X447836Y677730D01*
X451057Y679064D01*
X454543Y679064D01*
X457764Y677730D01*
X460230Y675264D01*
X461564Y672043D01*
X461564Y668557D01*
X460230Y665336D01*
X457764Y662870D01*
X454543Y661536D01*
X451057Y661536D01*
G37*
%LPD*%
%LPC*%
G36*
X197057Y382136D02*
X197057Y382136D01*
X193836Y383470D01*
X191370Y385936D01*
X190036Y389157D01*
X190036Y392643D01*
X191370Y395864D01*
X193836Y398330D01*
X197057Y399664D01*
X200543Y399664D01*
X203764Y398330D01*
X206230Y395864D01*
X207564Y392643D01*
X207564Y389157D01*
X206230Y385936D01*
X203764Y383470D01*
X200543Y382136D01*
X197057Y382136D01*
G37*
%LPD*%
%LPC*%
G36*
X171657Y382136D02*
X171657Y382136D01*
X168436Y383470D01*
X165970Y385936D01*
X164636Y389157D01*
X164636Y392643D01*
X165970Y395864D01*
X168436Y398330D01*
X171657Y399664D01*
X175143Y399664D01*
X178364Y398330D01*
X180830Y395864D01*
X182164Y392643D01*
X182164Y389157D01*
X180830Y385936D01*
X178364Y383470D01*
X175143Y382136D01*
X171657Y382136D01*
G37*
%LPD*%
%LPC*%
G36*
X552657Y382136D02*
X552657Y382136D01*
X549436Y383470D01*
X546970Y385936D01*
X545636Y389157D01*
X545636Y392643D01*
X546970Y395864D01*
X549436Y398330D01*
X552657Y399664D01*
X556143Y399664D01*
X559364Y398330D01*
X561830Y395864D01*
X563164Y392643D01*
X563164Y389157D01*
X561830Y385936D01*
X559364Y383470D01*
X556143Y382136D01*
X552657Y382136D01*
G37*
%LPD*%
%LPC*%
G36*
X527257Y382136D02*
X527257Y382136D01*
X524036Y383470D01*
X521570Y385936D01*
X520236Y389157D01*
X520236Y392643D01*
X521570Y395864D01*
X524036Y398330D01*
X527257Y399664D01*
X530743Y399664D01*
X533964Y398330D01*
X536430Y395864D01*
X537764Y392643D01*
X537764Y389157D01*
X536430Y385936D01*
X533964Y383470D01*
X530743Y382136D01*
X527257Y382136D01*
G37*
%LPD*%
%LPC*%
G36*
X501857Y382136D02*
X501857Y382136D01*
X498636Y383470D01*
X496170Y385936D01*
X494836Y389157D01*
X494836Y392643D01*
X496170Y395864D01*
X498636Y398330D01*
X501857Y399664D01*
X505343Y399664D01*
X508564Y398330D01*
X511030Y395864D01*
X512364Y392643D01*
X512364Y389157D01*
X511030Y385936D01*
X508564Y383470D01*
X505343Y382136D01*
X501857Y382136D01*
G37*
%LPD*%
%LPC*%
G36*
X476457Y382136D02*
X476457Y382136D01*
X473236Y383470D01*
X470770Y385936D01*
X469436Y389157D01*
X469436Y392643D01*
X470770Y395864D01*
X473236Y398330D01*
X476457Y399664D01*
X479943Y399664D01*
X483164Y398330D01*
X485630Y395864D01*
X486964Y392643D01*
X486964Y389157D01*
X485630Y385936D01*
X483164Y383470D01*
X479943Y382136D01*
X476457Y382136D01*
G37*
%LPD*%
%LPC*%
G36*
X451057Y382136D02*
X451057Y382136D01*
X447836Y383470D01*
X445370Y385936D01*
X444036Y389157D01*
X444036Y392643D01*
X445370Y395864D01*
X447836Y398330D01*
X451057Y399664D01*
X454543Y399664D01*
X457764Y398330D01*
X460230Y395864D01*
X461564Y392643D01*
X461564Y389157D01*
X460230Y385936D01*
X457764Y383470D01*
X454543Y382136D01*
X451057Y382136D01*
G37*
%LPD*%
%LPC*%
G36*
X425657Y382136D02*
X425657Y382136D01*
X422436Y383470D01*
X419970Y385936D01*
X418636Y389157D01*
X418636Y392643D01*
X419970Y395864D01*
X422436Y398330D01*
X425657Y399664D01*
X429143Y399664D01*
X432364Y398330D01*
X434830Y395864D01*
X436164Y392643D01*
X436164Y389157D01*
X434830Y385936D01*
X432364Y383470D01*
X429143Y382136D01*
X425657Y382136D01*
G37*
%LPD*%
%LPC*%
G36*
X400257Y382136D02*
X400257Y382136D01*
X397036Y383470D01*
X394570Y385936D01*
X393236Y389157D01*
X393236Y392643D01*
X394570Y395864D01*
X397036Y398330D01*
X400257Y399664D01*
X403743Y399664D01*
X406964Y398330D01*
X409430Y395864D01*
X410764Y392643D01*
X410764Y389157D01*
X409430Y385936D01*
X406964Y383470D01*
X403743Y382136D01*
X400257Y382136D01*
G37*
%LPD*%
%LPC*%
G36*
X374857Y382136D02*
X374857Y382136D01*
X371636Y383470D01*
X369170Y385936D01*
X367836Y389157D01*
X367836Y392643D01*
X369170Y395864D01*
X371636Y398330D01*
X374857Y399664D01*
X378343Y399664D01*
X381564Y398330D01*
X384030Y395864D01*
X385364Y392643D01*
X385364Y389157D01*
X384030Y385936D01*
X381564Y383470D01*
X378343Y382136D01*
X374857Y382136D01*
G37*
%LPD*%
%LPC*%
G36*
X349457Y382136D02*
X349457Y382136D01*
X346236Y383470D01*
X343770Y385936D01*
X342436Y389157D01*
X342436Y392643D01*
X343770Y395864D01*
X346236Y398330D01*
X349457Y399664D01*
X352943Y399664D01*
X356164Y398330D01*
X358630Y395864D01*
X359964Y392643D01*
X359964Y389157D01*
X358630Y385936D01*
X356164Y383470D01*
X352943Y382136D01*
X349457Y382136D01*
G37*
%LPD*%
%LPC*%
G36*
X324057Y382136D02*
X324057Y382136D01*
X320836Y383470D01*
X318370Y385936D01*
X317036Y389157D01*
X317036Y392643D01*
X318370Y395864D01*
X320836Y398330D01*
X324057Y399664D01*
X327543Y399664D01*
X330764Y398330D01*
X333230Y395864D01*
X334564Y392643D01*
X334564Y389157D01*
X333230Y385936D01*
X330764Y383470D01*
X327543Y382136D01*
X324057Y382136D01*
G37*
%LPD*%
%LPC*%
G36*
X298657Y382136D02*
X298657Y382136D01*
X295436Y383470D01*
X292970Y385936D01*
X291636Y389157D01*
X291636Y392643D01*
X292970Y395864D01*
X295436Y398330D01*
X298657Y399664D01*
X302143Y399664D01*
X305364Y398330D01*
X307830Y395864D01*
X309164Y392643D01*
X309164Y389157D01*
X307830Y385936D01*
X305364Y383470D01*
X302143Y382136D01*
X298657Y382136D01*
G37*
%LPD*%
%LPC*%
G36*
X273257Y382136D02*
X273257Y382136D01*
X270036Y383470D01*
X267570Y385936D01*
X266236Y389157D01*
X266236Y392643D01*
X267570Y395864D01*
X270036Y398330D01*
X273257Y399664D01*
X276743Y399664D01*
X279964Y398330D01*
X282430Y395864D01*
X283764Y392643D01*
X283764Y389157D01*
X282430Y385936D01*
X279964Y383470D01*
X276743Y382136D01*
X273257Y382136D01*
G37*
%LPD*%
%LPC*%
G36*
X247857Y382136D02*
X247857Y382136D01*
X244636Y383470D01*
X242170Y385936D01*
X240836Y389157D01*
X240836Y392643D01*
X242170Y395864D01*
X244636Y398330D01*
X247857Y399664D01*
X251343Y399664D01*
X254564Y398330D01*
X257030Y395864D01*
X258364Y392643D01*
X258364Y389157D01*
X257030Y385936D01*
X254564Y383470D01*
X251343Y382136D01*
X247857Y382136D01*
G37*
%LPD*%
%LPC*%
G36*
X222457Y382136D02*
X222457Y382136D01*
X219236Y383470D01*
X216770Y385936D01*
X215436Y389157D01*
X215436Y392643D01*
X216770Y395864D01*
X219236Y398330D01*
X222457Y399664D01*
X225943Y399664D01*
X229164Y398330D01*
X231630Y395864D01*
X232964Y392643D01*
X232964Y389157D01*
X231630Y385936D01*
X229164Y383470D01*
X225943Y382136D01*
X222457Y382136D01*
G37*
%LPD*%
%LPC*%
G36*
X146257Y382136D02*
X146257Y382136D01*
X143036Y383470D01*
X140570Y385936D01*
X139236Y389157D01*
X139236Y392643D01*
X140570Y395864D01*
X143036Y398330D01*
X146257Y399664D01*
X149743Y399664D01*
X152964Y398330D01*
X155430Y395864D01*
X156764Y392643D01*
X156764Y389157D01*
X155430Y385936D01*
X152964Y383470D01*
X149743Y382136D01*
X146257Y382136D01*
G37*
%LPD*%
%LPC*%
G36*
X120857Y382136D02*
X120857Y382136D01*
X117636Y383470D01*
X115170Y385936D01*
X113836Y389157D01*
X113836Y392643D01*
X115170Y395864D01*
X117636Y398330D01*
X120857Y399664D01*
X124343Y399664D01*
X127564Y398330D01*
X130030Y395864D01*
X131364Y392643D01*
X131364Y389157D01*
X130030Y385936D01*
X127564Y383470D01*
X124343Y382136D01*
X120857Y382136D01*
G37*
%LPD*%
%LPC*%
G36*
X425657Y661536D02*
X425657Y661536D01*
X422436Y662870D01*
X419970Y665336D01*
X418636Y668557D01*
X418636Y672043D01*
X419970Y675264D01*
X422436Y677730D01*
X425657Y679064D01*
X429143Y679064D01*
X432364Y677730D01*
X434830Y675264D01*
X436164Y672043D01*
X436164Y668557D01*
X434830Y665336D01*
X432364Y662870D01*
X429143Y661536D01*
X425657Y661536D01*
G37*
%LPD*%
%LPC*%
G36*
X120857Y661536D02*
X120857Y661536D01*
X117636Y662870D01*
X115170Y665336D01*
X113836Y668557D01*
X113836Y672043D01*
X115170Y675264D01*
X117636Y677730D01*
X120857Y679064D01*
X124343Y679064D01*
X127564Y677730D01*
X130030Y675264D01*
X131364Y672043D01*
X131364Y668557D01*
X130030Y665336D01*
X127564Y662870D01*
X124343Y661536D01*
X120857Y661536D01*
G37*
%LPD*%
%LPC*%
G36*
X146257Y661536D02*
X146257Y661536D01*
X143036Y662870D01*
X140570Y665336D01*
X139236Y668557D01*
X139236Y672043D01*
X140570Y675264D01*
X143036Y677730D01*
X146257Y679064D01*
X149743Y679064D01*
X152964Y677730D01*
X155430Y675264D01*
X156764Y672043D01*
X156764Y668557D01*
X155430Y665336D01*
X152964Y662870D01*
X149743Y661536D01*
X146257Y661536D01*
G37*
%LPD*%
%LPC*%
G36*
X400257Y661536D02*
X400257Y661536D01*
X397036Y662870D01*
X394570Y665336D01*
X393236Y668557D01*
X393236Y672043D01*
X394570Y675264D01*
X397036Y677730D01*
X400257Y679064D01*
X403743Y679064D01*
X406964Y677730D01*
X409430Y675264D01*
X410764Y672043D01*
X410764Y668557D01*
X409430Y665336D01*
X406964Y662870D01*
X403743Y661536D01*
X400257Y661536D01*
G37*
%LPD*%
%LPC*%
G36*
X353963Y906170D02*
X353963Y906170D01*
X350938Y907423D01*
X348623Y909738D01*
X347370Y912763D01*
X347370Y916037D01*
X348623Y919062D01*
X350938Y921377D01*
X353963Y922630D01*
X357237Y922630D01*
X360262Y921377D01*
X362577Y919062D01*
X363830Y916037D01*
X363830Y912763D01*
X362577Y909738D01*
X360262Y907423D01*
X357237Y906170D01*
X353963Y906170D01*
G37*
%LPD*%
%LPC*%
G36*
X379363Y906170D02*
X379363Y906170D01*
X376338Y907423D01*
X374023Y909738D01*
X372770Y912763D01*
X372770Y916037D01*
X374023Y919062D01*
X376338Y921377D01*
X379363Y922630D01*
X382637Y922630D01*
X385662Y921377D01*
X387977Y919062D01*
X389230Y916037D01*
X389230Y912763D01*
X387977Y909738D01*
X385662Y907423D01*
X382637Y906170D01*
X379363Y906170D01*
G37*
%LPD*%
%LPC*%
G36*
X404763Y906170D02*
X404763Y906170D01*
X401738Y907423D01*
X399423Y909738D01*
X398170Y912763D01*
X398170Y916037D01*
X399423Y919062D01*
X401738Y921377D01*
X404763Y922630D01*
X408037Y922630D01*
X411062Y921377D01*
X413377Y919062D01*
X414630Y916037D01*
X414630Y912763D01*
X413377Y909738D01*
X411062Y907423D01*
X408037Y906170D01*
X404763Y906170D01*
G37*
%LPD*%
%LPC*%
G36*
X328563Y906170D02*
X328563Y906170D01*
X325538Y907423D01*
X323223Y909738D01*
X321970Y912763D01*
X321970Y916037D01*
X323223Y919062D01*
X325538Y921377D01*
X328563Y922630D01*
X331837Y922630D01*
X334862Y921377D01*
X337177Y919062D01*
X338430Y916037D01*
X338430Y912763D01*
X337177Y909738D01*
X334862Y907423D01*
X331837Y906170D01*
X328563Y906170D01*
G37*
%LPD*%
%LPC*%
G36*
X430163Y906170D02*
X430163Y906170D01*
X427138Y907423D01*
X424823Y909738D01*
X423570Y912763D01*
X423570Y916037D01*
X424823Y919062D01*
X427138Y921377D01*
X430163Y922630D01*
X433437Y922630D01*
X436462Y921377D01*
X438777Y919062D01*
X440030Y916037D01*
X440030Y912763D01*
X438777Y909738D01*
X436462Y907423D01*
X433437Y906170D01*
X430163Y906170D01*
G37*
%LPD*%
%LPC*%
G36*
X455563Y906170D02*
X455563Y906170D01*
X452538Y907423D01*
X450223Y909738D01*
X448970Y912763D01*
X448970Y916037D01*
X450223Y919062D01*
X452538Y921377D01*
X455563Y922630D01*
X458837Y922630D01*
X461862Y921377D01*
X464177Y919062D01*
X465430Y916037D01*
X465430Y912763D01*
X464177Y909738D01*
X461862Y907423D01*
X458837Y906170D01*
X455563Y906170D01*
G37*
%LPD*%
%LPC*%
G36*
X415145Y932687D02*
X415145Y932687D01*
X412531Y933770D01*
X410530Y935771D01*
X409447Y938385D01*
X409447Y941215D01*
X410530Y943829D01*
X412531Y945830D01*
X415145Y946913D01*
X417975Y946913D01*
X420589Y945830D01*
X422590Y943829D01*
X423673Y941215D01*
X423673Y938385D01*
X422590Y935771D01*
X420589Y933770D01*
X417975Y932687D01*
X415145Y932687D01*
G37*
%LPD*%
%LPC*%
G36*
X465945Y932687D02*
X465945Y932687D01*
X463331Y933770D01*
X461330Y935771D01*
X460247Y938385D01*
X460247Y941215D01*
X461330Y943829D01*
X463331Y945830D01*
X465945Y946913D01*
X468775Y946913D01*
X471389Y945830D01*
X473390Y943829D01*
X474473Y941215D01*
X474473Y938385D01*
X473390Y935771D01*
X471389Y933770D01*
X468775Y932687D01*
X465945Y932687D01*
G37*
%LPD*%
%LPC*%
G36*
X354185Y937767D02*
X354185Y937767D01*
X351571Y938850D01*
X349570Y940851D01*
X348487Y943465D01*
X348487Y946295D01*
X349570Y948909D01*
X351571Y950910D01*
X354185Y951993D01*
X357015Y951993D01*
X359629Y950910D01*
X361630Y948909D01*
X362713Y946295D01*
X362713Y943465D01*
X361630Y940851D01*
X359629Y938850D01*
X357015Y937767D01*
X354185Y937767D01*
G37*
%LPD*%
%LPC*%
G36*
X1136505Y767587D02*
X1136505Y767587D01*
X1133891Y768670D01*
X1131890Y770671D01*
X1130807Y773285D01*
X1130807Y776115D01*
X1131890Y778729D01*
X1133891Y780730D01*
X1136505Y781813D01*
X1139335Y781813D01*
X1141949Y780730D01*
X1143950Y778729D01*
X1145033Y776115D01*
X1145033Y773285D01*
X1143950Y770671D01*
X1141949Y768670D01*
X1139335Y767587D01*
X1136505Y767587D01*
G37*
%LPD*%
%LPC*%
G36*
X303385Y767587D02*
X303385Y767587D01*
X300771Y768670D01*
X298770Y770671D01*
X297687Y773285D01*
X297687Y776115D01*
X298770Y778729D01*
X300771Y780730D01*
X303385Y781813D01*
X306215Y781813D01*
X308829Y780730D01*
X310830Y778729D01*
X311913Y776115D01*
X311913Y773285D01*
X310830Y770671D01*
X308829Y768670D01*
X306215Y767587D01*
X303385Y767587D01*
G37*
%LPD*%
%LPC*%
G36*
X1106025Y767587D02*
X1106025Y767587D01*
X1103411Y768670D01*
X1101410Y770671D01*
X1100327Y773285D01*
X1100327Y776115D01*
X1101410Y778729D01*
X1103411Y780730D01*
X1106025Y781813D01*
X1108855Y781813D01*
X1111469Y780730D01*
X1113470Y778729D01*
X1114553Y776115D01*
X1114553Y773285D01*
X1113470Y770671D01*
X1111469Y768670D01*
X1108855Y767587D01*
X1106025Y767587D01*
G37*
%LPD*%
%LPC*%
G36*
X1116185Y940307D02*
X1116185Y940307D01*
X1113571Y941390D01*
X1111570Y943391D01*
X1110487Y946005D01*
X1110487Y948835D01*
X1111570Y951449D01*
X1113571Y953450D01*
X1116185Y954533D01*
X1119015Y954533D01*
X1121629Y953450D01*
X1123630Y951449D01*
X1124713Y948835D01*
X1124713Y946005D01*
X1123630Y943391D01*
X1121629Y941390D01*
X1119015Y940307D01*
X1116185Y940307D01*
G37*
%LPD*%
%LPC*%
G36*
X1078085Y48767D02*
X1078085Y48767D01*
X1075471Y49850D01*
X1073470Y51851D01*
X1072387Y54465D01*
X1072387Y57295D01*
X1073470Y59909D01*
X1075471Y61910D01*
X1078085Y62993D01*
X1080915Y62993D01*
X1083529Y61910D01*
X1085530Y59909D01*
X1086613Y57295D01*
X1086613Y54465D01*
X1085530Y51851D01*
X1083529Y49850D01*
X1080915Y48767D01*
X1078085Y48767D01*
G37*
%LPD*%
%LPC*%
G36*
X270365Y221487D02*
X270365Y221487D01*
X267751Y222570D01*
X265750Y224571D01*
X264667Y227185D01*
X264667Y230015D01*
X265750Y232629D01*
X267751Y234630D01*
X270365Y235713D01*
X273195Y235713D01*
X275809Y234630D01*
X277810Y232629D01*
X278893Y230015D01*
X278893Y227185D01*
X277810Y224571D01*
X275809Y222570D01*
X273195Y221487D01*
X270365Y221487D01*
G37*
%LPD*%
%LPC*%
G36*
X1001885Y132587D02*
X1001885Y132587D01*
X999271Y133670D01*
X997270Y135671D01*
X996187Y138285D01*
X996187Y141115D01*
X997270Y143729D01*
X999271Y145730D01*
X1001885Y146813D01*
X1004715Y146813D01*
X1007329Y145730D01*
X1009330Y143729D01*
X1010413Y141115D01*
X1010413Y138285D01*
X1009330Y135671D01*
X1007329Y133670D01*
X1004715Y132587D01*
X1001885Y132587D01*
G37*
%LPD*%
%LPC*%
G36*
X816465Y132587D02*
X816465Y132587D01*
X813851Y133670D01*
X811850Y135671D01*
X810767Y138285D01*
X810767Y141115D01*
X811850Y143729D01*
X813851Y145730D01*
X816465Y146813D01*
X819295Y146813D01*
X821909Y145730D01*
X823910Y143729D01*
X824993Y141115D01*
X824993Y138285D01*
X823910Y135671D01*
X821909Y133670D01*
X819295Y132587D01*
X816465Y132587D01*
G37*
%LPD*%
%LPC*%
G36*
X303643Y349785D02*
X303643Y349785D01*
X301506Y350670D01*
X299870Y352306D01*
X298985Y354443D01*
X298985Y356757D01*
X299870Y358894D01*
X301506Y360530D01*
X303643Y361415D01*
X305957Y361415D01*
X308094Y360530D01*
X309730Y358894D01*
X310615Y356757D01*
X310615Y354443D01*
X309730Y352306D01*
X308094Y350670D01*
X305957Y349785D01*
X303643Y349785D01*
G37*
%LPD*%
%LPC*%
G36*
X404222Y647122D02*
X404222Y647122D01*
X404222Y653393D01*
X404556Y653327D01*
X406151Y652666D01*
X407587Y651707D01*
X408807Y650487D01*
X409766Y649051D01*
X410427Y647456D01*
X410493Y647122D01*
X404222Y647122D01*
G37*
%LPD*%
%LPC*%
G36*
X277222Y418522D02*
X277222Y418522D01*
X277222Y424793D01*
X277556Y424727D01*
X279151Y424066D01*
X280587Y423107D01*
X281807Y421887D01*
X282766Y420451D01*
X283427Y418856D01*
X283493Y418522D01*
X277222Y418522D01*
G37*
%LPD*%
%LPC*%
G36*
X266507Y418522D02*
X266507Y418522D01*
X266573Y418856D01*
X267234Y420451D01*
X268193Y421887D01*
X269413Y423107D01*
X270849Y424066D01*
X272444Y424727D01*
X272778Y424793D01*
X272778Y418522D01*
X266507Y418522D01*
G37*
%LPD*%
%LPC*%
G36*
X404222Y642678D02*
X404222Y642678D01*
X410493Y642678D01*
X410427Y642344D01*
X409766Y640749D01*
X408807Y639313D01*
X407587Y638093D01*
X406151Y637134D01*
X404556Y636473D01*
X404222Y636407D01*
X404222Y642678D01*
G37*
%LPD*%
%LPC*%
G36*
X277222Y414078D02*
X277222Y414078D01*
X283493Y414078D01*
X283427Y413744D01*
X282766Y412149D01*
X281807Y410713D01*
X280587Y409493D01*
X279151Y408534D01*
X277556Y407873D01*
X277222Y407807D01*
X277222Y414078D01*
G37*
%LPD*%
%LPC*%
G36*
X393507Y647122D02*
X393507Y647122D01*
X393573Y647456D01*
X394234Y649051D01*
X395193Y650487D01*
X396413Y651707D01*
X397849Y652666D01*
X399444Y653327D01*
X399778Y653393D01*
X399778Y647122D01*
X393507Y647122D01*
G37*
%LPD*%
%LPC*%
G36*
X399444Y636473D02*
X399444Y636473D01*
X397849Y637134D01*
X396413Y638093D01*
X395193Y639313D01*
X394234Y640749D01*
X393573Y642344D01*
X393507Y642678D01*
X399778Y642678D01*
X399778Y636407D01*
X399444Y636473D01*
G37*
%LPD*%
%LPC*%
G36*
X272444Y407873D02*
X272444Y407873D01*
X270849Y408534D01*
X269413Y409493D01*
X268193Y410713D01*
X267234Y412149D01*
X266573Y413744D01*
X266507Y414078D01*
X272778Y414078D01*
X272778Y407807D01*
X272444Y407873D01*
G37*
%LPD*%
D10*
X330200Y914400D03*
X355600Y914400D03*
D11*
X1092600Y88900D03*
X1117600Y88900D03*
X1142600Y88900D03*
D12*
X608600Y825100D03*
X608600Y775100D03*
X483600Y775100D03*
X483600Y825100D03*
D13*
X122600Y390900D03*
X122600Y416300D03*
X148000Y390900D03*
X148000Y416300D03*
X173400Y390900D03*
X173400Y416300D03*
X198800Y390900D03*
X198800Y416300D03*
X224200Y390900D03*
X224200Y416300D03*
X249600Y390900D03*
X249600Y416300D03*
X275000Y390900D03*
X275000Y416300D03*
X300400Y390900D03*
X300400Y416300D03*
X325800Y390900D03*
X325800Y416300D03*
X351200Y390900D03*
X351200Y416300D03*
X376600Y390900D03*
X376600Y416300D03*
X402000Y390900D03*
X402000Y416300D03*
X427400Y390900D03*
X427400Y416300D03*
X452800Y390900D03*
X452800Y416300D03*
X478200Y390900D03*
X478200Y416300D03*
X503600Y390900D03*
X503600Y416300D03*
X529000Y390900D03*
X529000Y416300D03*
X554400Y390900D03*
X554400Y416300D03*
X122600Y644900D03*
X122600Y670300D03*
X148000Y644900D03*
X148000Y670300D03*
X173400Y644900D03*
X173400Y670300D03*
X198800Y644900D03*
X198800Y670300D03*
X224200Y644900D03*
X224200Y670300D03*
X249600Y644900D03*
X249600Y670300D03*
X275000Y644900D03*
X275000Y670300D03*
X300400Y644900D03*
X300400Y670300D03*
X325800Y644900D03*
X325800Y670300D03*
X351200Y644900D03*
X351200Y670300D03*
X376600Y644900D03*
X376600Y670300D03*
X402000Y644900D03*
X402000Y670300D03*
X427400Y644900D03*
X427400Y670300D03*
X452800Y644900D03*
X452800Y670300D03*
X478200Y644900D03*
X478200Y670300D03*
X503600Y644900D03*
X503600Y670300D03*
X529000Y644900D03*
X529000Y670300D03*
X554400Y644900D03*
X554400Y670300D03*
D10*
X381000Y914400D03*
X406400Y914400D03*
X431800Y914400D03*
X457200Y914400D03*
D11*
X533800Y76200D03*
X558800Y76200D03*
X583800Y76200D03*
D12*
X851900Y140100D03*
X851900Y190100D03*
X976900Y190100D03*
X976900Y140100D03*
D14*
X203200Y203200D03*
X228200Y203200D03*
X248200Y203200D03*
X273200Y203200D03*
D15*
X172500Y176100D03*
X303900Y176100D03*
D16*
X38100Y965200D03*
X38100Y38100D03*
X1200150Y44450D03*
X1193800Y952500D03*
D17*
X304800Y355600D03*
X63500Y284480D03*
X63500Y274320D03*
X63500Y264160D03*
X114300Y284480D03*
X114300Y274320D03*
X114300Y264160D03*
D18*
X304800Y774700D03*
X416560Y939800D03*
X467360Y939800D03*
X355600Y944880D03*
X584200Y60960D03*
X271780Y228600D03*
X1079500Y55880D03*
X1137920Y774700D03*
X1107440Y774700D03*
X817880Y139700D03*
X1117600Y947420D03*
X971804Y543560D03*
X972820Y533400D03*
X1003300Y139700D03*
X414700Y626700D03*
X914400Y717550D03*
X1033780Y168910D03*
X949960Y538480D03*
X960120Y543560D03*
D17*
X66040Y243840D03*
X66040Y233680D03*
X66040Y223520D03*
X114300Y223520D03*
X114300Y233680D03*
X114300Y243840D03*
M02*
