G04 EAGLE Gerber RS-274X export*
G75*
%MOMM*%
%FSLAX34Y34*%
%LPD*%
%INSilkscreen Bottom*%
%IPPOS*%
%AMOC8*
5,1,8,0,0,1.08239X$1,22.5*%
G01*
%ADD10C,0.127000*%
%ADD11C,0.152400*%


D10*
X1002300Y506700D02*
X1024300Y506700D01*
X1024300Y493700D01*
X749300Y506700D02*
X728300Y506700D01*
X728300Y493700D01*
X1024300Y463700D02*
X1024300Y454700D01*
X728300Y454700D01*
X728300Y463700D01*
D11*
X1022798Y517066D02*
X1022798Y521836D01*
X1022798Y517066D02*
X1022796Y516981D01*
X1022790Y516897D01*
X1022780Y516813D01*
X1022767Y516729D01*
X1022749Y516646D01*
X1022728Y516564D01*
X1022703Y516483D01*
X1022674Y516403D01*
X1022642Y516325D01*
X1022606Y516249D01*
X1022566Y516174D01*
X1022523Y516101D01*
X1022477Y516030D01*
X1022428Y515961D01*
X1022375Y515894D01*
X1022319Y515830D01*
X1022261Y515769D01*
X1022200Y515711D01*
X1022136Y515655D01*
X1022069Y515602D01*
X1022000Y515553D01*
X1021929Y515507D01*
X1021856Y515464D01*
X1021781Y515424D01*
X1021705Y515388D01*
X1021627Y515356D01*
X1021547Y515327D01*
X1021466Y515302D01*
X1021384Y515281D01*
X1021301Y515263D01*
X1021217Y515250D01*
X1021133Y515240D01*
X1021049Y515234D01*
X1020964Y515232D01*
X1020879Y515234D01*
X1020795Y515240D01*
X1020711Y515250D01*
X1020627Y515263D01*
X1020544Y515281D01*
X1020462Y515302D01*
X1020381Y515327D01*
X1020301Y515356D01*
X1020223Y515388D01*
X1020147Y515424D01*
X1020072Y515464D01*
X1019999Y515507D01*
X1019928Y515553D01*
X1019859Y515602D01*
X1019792Y515655D01*
X1019728Y515711D01*
X1019667Y515769D01*
X1019609Y515830D01*
X1019553Y515894D01*
X1019500Y515961D01*
X1019451Y516030D01*
X1019405Y516101D01*
X1019362Y516174D01*
X1019322Y516249D01*
X1019286Y516325D01*
X1019254Y516403D01*
X1019225Y516483D01*
X1019200Y516564D01*
X1019179Y516646D01*
X1019161Y516729D01*
X1019148Y516813D01*
X1019138Y516897D01*
X1019132Y516981D01*
X1019130Y517066D01*
X1019129Y517066D02*
X1019129Y521836D01*
X1013892Y521836D02*
X1013892Y515232D01*
X1013892Y518534D02*
X1014809Y519084D01*
X1014810Y519084D02*
X1014864Y519119D01*
X1014917Y519157D01*
X1014967Y519198D01*
X1015014Y519242D01*
X1015059Y519289D01*
X1015101Y519338D01*
X1015140Y519390D01*
X1015176Y519444D01*
X1015208Y519499D01*
X1015238Y519557D01*
X1015263Y519616D01*
X1015286Y519677D01*
X1015304Y519739D01*
X1015319Y519802D01*
X1015331Y519866D01*
X1015338Y519930D01*
X1015342Y519995D01*
X1015341Y520059D01*
X1015337Y520124D01*
X1015330Y520188D01*
X1015318Y520252D01*
X1015303Y520315D01*
X1015284Y520377D01*
X1015261Y520437D01*
X1015235Y520496D01*
X1015205Y520554D01*
X1015172Y520610D01*
X1015136Y520663D01*
X1015097Y520715D01*
X1015055Y520764D01*
X1015010Y520810D01*
X1014962Y520854D01*
X1014912Y520895D01*
X1014859Y520932D01*
X1014805Y520967D01*
X1014748Y520998D01*
X1014690Y521026D01*
X1014630Y521051D01*
X1014569Y521071D01*
X1014506Y521089D01*
X1014443Y521102D01*
X1014442Y521103D02*
X1014339Y521120D01*
X1014235Y521133D01*
X1014131Y521142D01*
X1014026Y521148D01*
X1013921Y521150D01*
X1013816Y521148D01*
X1013712Y521143D01*
X1013607Y521133D01*
X1013503Y521120D01*
X1013400Y521103D01*
X1013297Y521083D01*
X1013195Y521058D01*
X1013094Y521030D01*
X1012994Y520999D01*
X1012896Y520964D01*
X1012798Y520925D01*
X1012702Y520883D01*
X1012608Y520837D01*
X1012515Y520788D01*
X1012424Y520736D01*
X1013892Y518534D02*
X1012975Y517984D01*
X1012921Y517949D01*
X1012868Y517911D01*
X1012818Y517870D01*
X1012771Y517826D01*
X1012726Y517779D01*
X1012684Y517730D01*
X1012645Y517678D01*
X1012609Y517624D01*
X1012577Y517569D01*
X1012547Y517511D01*
X1012522Y517452D01*
X1012499Y517391D01*
X1012481Y517329D01*
X1012466Y517266D01*
X1012454Y517202D01*
X1012447Y517138D01*
X1012443Y517073D01*
X1012444Y517009D01*
X1012448Y516944D01*
X1012455Y516880D01*
X1012467Y516816D01*
X1012482Y516753D01*
X1012501Y516692D01*
X1012524Y516631D01*
X1012550Y516572D01*
X1012580Y516514D01*
X1012612Y516459D01*
X1012649Y516405D01*
X1012688Y516353D01*
X1012730Y516304D01*
X1012775Y516258D01*
X1012823Y516214D01*
X1012873Y516174D01*
X1012926Y516136D01*
X1012980Y516101D01*
X1013037Y516070D01*
X1013095Y516042D01*
X1013155Y516017D01*
X1013216Y515997D01*
X1013279Y515979D01*
X1013342Y515966D01*
X1013445Y515949D01*
X1013549Y515936D01*
X1013653Y515927D01*
X1013758Y515921D01*
X1013863Y515919D01*
X1013967Y515921D01*
X1014072Y515926D01*
X1014176Y515936D01*
X1014280Y515949D01*
X1014384Y515966D01*
X1014487Y515986D01*
X1014589Y516011D01*
X1014690Y516039D01*
X1014789Y516070D01*
X1014888Y516105D01*
X1014986Y516144D01*
X1015082Y516186D01*
X1015176Y516232D01*
X1015268Y516281D01*
X1015359Y516333D01*
X1006881Y521836D02*
X1006802Y521834D01*
X1006724Y521829D01*
X1006646Y521819D01*
X1006569Y521806D01*
X1006492Y521789D01*
X1006416Y521769D01*
X1006341Y521745D01*
X1006267Y521718D01*
X1006195Y521687D01*
X1006124Y521652D01*
X1006056Y521615D01*
X1005988Y521574D01*
X1005923Y521530D01*
X1005860Y521483D01*
X1005800Y521433D01*
X1005742Y521380D01*
X1005686Y521324D01*
X1005633Y521266D01*
X1005583Y521206D01*
X1005536Y521143D01*
X1005492Y521078D01*
X1005451Y521011D01*
X1005414Y520942D01*
X1005379Y520871D01*
X1005348Y520799D01*
X1005321Y520725D01*
X1005297Y520650D01*
X1005277Y520574D01*
X1005260Y520497D01*
X1005247Y520420D01*
X1005237Y520342D01*
X1005232Y520264D01*
X1005230Y520185D01*
X1006881Y521836D02*
X1006970Y521834D01*
X1007059Y521829D01*
X1007147Y521819D01*
X1007235Y521806D01*
X1007322Y521790D01*
X1007409Y521769D01*
X1007494Y521745D01*
X1007579Y521718D01*
X1007662Y521687D01*
X1007744Y521652D01*
X1007825Y521614D01*
X1007904Y521573D01*
X1007980Y521529D01*
X1008056Y521481D01*
X1008129Y521430D01*
X1008199Y521377D01*
X1008268Y521320D01*
X1008334Y521260D01*
X1008397Y521198D01*
X1008458Y521133D01*
X1008516Y521066D01*
X1008571Y520996D01*
X1008624Y520924D01*
X1008673Y520850D01*
X1008719Y520774D01*
X1008761Y520696D01*
X1008801Y520616D01*
X1008837Y520535D01*
X1008870Y520452D01*
X1008899Y520368D01*
X1005781Y518901D02*
X1005725Y518957D01*
X1005671Y519016D01*
X1005620Y519077D01*
X1005571Y519141D01*
X1005526Y519206D01*
X1005483Y519274D01*
X1005444Y519343D01*
X1005407Y519414D01*
X1005374Y519487D01*
X1005345Y519561D01*
X1005318Y519636D01*
X1005295Y519712D01*
X1005276Y519790D01*
X1005260Y519868D01*
X1005247Y519946D01*
X1005238Y520026D01*
X1005233Y520105D01*
X1005231Y520185D01*
X1005781Y518901D02*
X1008899Y515232D01*
X1005230Y515232D01*
M02*
