G04 EAGLE Gerber RS-274X export*
G75*
%MOMM*%
%FSLAX34Y34*%
%LPD*%
%INSoldermask Bottom*%
%IPPOS*%
%AMOC8*
5,1,8,0,0,1.08239X$1,22.5*%
G01*
%ADD10P,1.396628X8X22.500000*%
%ADD11C,1.552400*%
%ADD12C,2.652400*%
%ADD13C,2.112400*%
%ADD14R,1.676400X1.676400*%
%ADD15P,1.814519X8X22.500000*%
%ADD16R,1.440400X1.440400*%
%ADD17C,1.440400*%
%ADD18C,3.372400*%
%ADD19C,4.597400*%
%ADD20R,0.300000X1.300000*%
%ADD21C,0.740194*%


D10*
X330200Y914400D03*
X355600Y914400D03*
D11*
X1092600Y88900D03*
X1117600Y88900D03*
X1142600Y88900D03*
D12*
X1067600Y158900D03*
X1167600Y158900D03*
D13*
X608600Y825100D03*
X608600Y775100D03*
X483600Y775100D03*
X483600Y825100D03*
D14*
X122600Y390900D03*
D15*
X122600Y416300D03*
X148000Y390900D03*
X148000Y416300D03*
X173400Y390900D03*
X173400Y416300D03*
X198800Y390900D03*
X198800Y416300D03*
X224200Y390900D03*
X224200Y416300D03*
X249600Y390900D03*
X249600Y416300D03*
X275000Y390900D03*
X275000Y416300D03*
X300400Y390900D03*
X300400Y416300D03*
X325800Y390900D03*
X325800Y416300D03*
X351200Y390900D03*
X351200Y416300D03*
X376600Y390900D03*
X376600Y416300D03*
X402000Y390900D03*
X402000Y416300D03*
X427400Y390900D03*
X427400Y416300D03*
X452800Y390900D03*
X452800Y416300D03*
X478200Y390900D03*
X478200Y416300D03*
X503600Y390900D03*
X503600Y416300D03*
X529000Y390900D03*
X529000Y416300D03*
X554400Y390900D03*
X554400Y416300D03*
D14*
X122600Y644900D03*
D15*
X122600Y670300D03*
X148000Y644900D03*
X148000Y670300D03*
X173400Y644900D03*
X173400Y670300D03*
X198800Y644900D03*
X198800Y670300D03*
X224200Y644900D03*
X224200Y670300D03*
X249600Y644900D03*
X249600Y670300D03*
X275000Y644900D03*
X275000Y670300D03*
X300400Y644900D03*
X300400Y670300D03*
X325800Y644900D03*
X325800Y670300D03*
X351200Y644900D03*
X351200Y670300D03*
X376600Y644900D03*
X376600Y670300D03*
X402000Y644900D03*
X402000Y670300D03*
X427400Y644900D03*
X427400Y670300D03*
X452800Y644900D03*
X452800Y670300D03*
X478200Y644900D03*
X478200Y670300D03*
X503600Y644900D03*
X503600Y670300D03*
X529000Y644900D03*
X529000Y670300D03*
X554400Y644900D03*
X554400Y670300D03*
D10*
X381000Y914400D03*
X406400Y914400D03*
X431800Y914400D03*
X457200Y914400D03*
D11*
X533800Y76200D03*
X558800Y76200D03*
X583800Y76200D03*
D12*
X508800Y146200D03*
X608800Y146200D03*
D13*
X851900Y140100D03*
X851900Y190100D03*
X976900Y190100D03*
X976900Y140100D03*
D16*
X203200Y203200D03*
D17*
X228200Y203200D03*
X248200Y203200D03*
X273200Y203200D03*
D18*
X172500Y176100D03*
X303900Y176100D03*
D19*
X38100Y965200D03*
X38100Y38100D03*
X1200150Y44450D03*
X1193800Y952500D03*
D20*
X998800Y510400D03*
X993800Y510400D03*
X988800Y510400D03*
X978800Y510400D03*
X983800Y510400D03*
X973800Y510400D03*
X968800Y510400D03*
X963800Y510400D03*
X958800Y510400D03*
X948800Y510400D03*
X953800Y510400D03*
X943800Y510400D03*
X938800Y510400D03*
X933800Y510400D03*
X928800Y510400D03*
X918800Y510400D03*
X923800Y510400D03*
X913800Y510400D03*
X908800Y510400D03*
X903800Y510400D03*
X898800Y510400D03*
X888800Y510400D03*
X893800Y510400D03*
X883800Y510400D03*
X878800Y510400D03*
X868800Y510400D03*
X858800Y510400D03*
X863800Y510400D03*
X853800Y510400D03*
X848800Y510400D03*
X843800Y510400D03*
X838800Y510400D03*
X828800Y510400D03*
X833800Y510400D03*
X823800Y510400D03*
X818800Y510400D03*
X813800Y510400D03*
X808800Y510400D03*
X798800Y510400D03*
X803800Y510400D03*
X793800Y510400D03*
X788800Y510400D03*
X783800Y510400D03*
X778800Y510400D03*
X768800Y510400D03*
X773800Y510400D03*
X763800Y510400D03*
X758800Y510400D03*
X753800Y510400D03*
D21*
X1010739Y487761D02*
X1028861Y487761D01*
X1028861Y469639D01*
X1010739Y469639D01*
X1010739Y487761D01*
X1010739Y476671D02*
X1028861Y476671D01*
X1028861Y483703D02*
X1010739Y483703D01*
X741861Y487761D02*
X723739Y487761D01*
X741861Y487761D02*
X741861Y469639D01*
X723739Y469639D01*
X723739Y487761D01*
X723739Y476671D02*
X741861Y476671D01*
X741861Y483703D02*
X723739Y483703D01*
M02*
