M48
;GenerationSoftware,Autodesk,EAGLE,9.6.2*%
;CreationDate,2025-12-16T19:56:17Z*%
FMAT,2
ICI,OFF
METRIC,TZ,000.000
T10C0.350
T9C0.610
T8C0.813
T7C0.889
T6C0.920
T5C1.000
T4C1.400
T3C2.300
T2C2.500
T1C3.175
%
G90
M71
T1
X119380Y95250
X120015Y4445
X3810Y3810
X3810Y96520
T2
X60880Y14620
X50880Y14620
X116760Y15890
X106760Y15890
T3
X30390Y17610
X17250Y17610
T4
X97690Y14010
X97690Y19010
X85190Y19010
X85190Y14010
X48360Y82510
X48360Y77510
X60860Y77510
X60860Y82510
T5
X58380Y7620
X55880Y7620
X53380Y7620
X114260Y8890
X111760Y8890
X109260Y8890
T6
X27320Y20320
X24820Y20320
X22820Y20320
X20320Y20320
T7
X42740Y39090
X14800Y64490
X55440Y67030
X55440Y64490
X52900Y67030
X52900Y64490
X50360Y67030
X50360Y64490
X47820Y67030
X47820Y64490
X45280Y67030
X45280Y64490
X42740Y67030
X42740Y64490
X40200Y67030
X40200Y64490
X37660Y67030
X12260Y39090
X12260Y41630
X14800Y39090
X14800Y41630
X17340Y39090
X17340Y41630
X19880Y39090
X19880Y41630
X22420Y39090
X22420Y41630
X24960Y39090
X24960Y41630
X27500Y39090
X27500Y41630
X30040Y39090
X30040Y41630
X32580Y39090
X32580Y41630
X35120Y39090
X35120Y41630
X37660Y39090
X37660Y41630
X40200Y39090
X40200Y41630
X37660Y64490
X42740Y41630
X45280Y39090
X45280Y41630
X47820Y39090
X47820Y41630
X50360Y39090
X50360Y41630
X52900Y39090
X52900Y41630
X55440Y39090
X55440Y41630
X12260Y64490
X12260Y67030
X35120Y67030
X14800Y67030
X17340Y64490
X17340Y67030
X19880Y64490
X19880Y67030
X22420Y64490
X22420Y67030
X24960Y64490
X24960Y67030
X27500Y64490
X27500Y67030
X30040Y64490
X30040Y67030
X32580Y64490
X32580Y67030
X35120Y64490
T8
X35560Y91440
X33020Y91440
X38100Y91440
X40640Y91440
X43180Y91440
X45720Y91440
T9
X27178Y22860
X58420Y6096
X111760Y94742
X97180Y54356
X97282Y53340
X100330Y13970
X41470Y62670
X91440Y71755
X103378Y16891
X94996Y53848
X96012Y54356
X35560Y94488
X46736Y93980
X41656Y93980
X30480Y77470
X81788Y13970
X110744Y77470
X113792Y77470
X107950Y5588
T10
X11430Y22352
X6604Y22352
X6604Y24384
X6604Y23368
X11430Y24384
X11430Y23368
X11430Y26416
X11430Y27432
X11430Y28448
X6350Y26416
X6350Y27432
X6350Y28448
X30480Y35560
M30